<svg width="362" height="116" viewBox="0 0 362 116" fill="none" xmlns="http://www.w3.org/2000/svg">
<g opacity="0.3">
<path d="M34.619 22.4088L25.8005 68.0851C24.7282 73.6393 28.0938 79.0662 33.3178 80.2063L76.2782 89.5823C81.5022 90.7225 86.6064 87.1441 87.6788 81.5898L96.4973 35.9135C97.5696 30.3593 94.204 24.9324 88.98 23.7923L46.0196 14.4163C40.7956 13.2762 35.6914 16.8545 34.619 22.4088Z" fill="#6997FF"/>
</g>
<g opacity="0.3">
<path d="M85.3454 25.6037L42.6132 36.0928C37.417 37.3683 34.1771 42.881 35.3767 48.4057L45.2422 93.8393C46.4419 99.3641 51.6268 102.809 56.823 101.533L99.5552 91.0441C104.751 89.7686 107.991 84.256 106.792 78.7312L96.9262 33.2976C95.7265 27.7729 90.5416 24.3282 85.3454 25.6037Z" fill="#6997FF"/>
</g>
<path d="M87.9776 24.6285H44.1215C38.7885 24.6285 34.4653 29.225 34.4653 34.895V81.5237C34.4653 87.1938 38.7885 91.7903 44.1215 91.7903H87.9776C93.3106 91.7903 97.6338 87.1938 97.6338 81.5237V34.895C97.6338 29.225 93.3106 24.6285 87.9776 24.6285Z" fill="#577BCB"/>
<path d="M66.836 77.5412C63.5043 77.5421 60.2313 76.6092 57.3468 74.8365C54.4624 73.0638 52.0684 70.514 50.4062 67.444C48.744 64.3741 47.8724 60.8925 47.8792 57.3502C47.886 53.8079 48.7709 50.3301 50.4448 47.2673C52.1187 44.2046 54.5225 41.6651 57.4137 39.9049C60.3049 38.1447 63.5815 37.226 66.9132 37.2414C70.2448 37.2567 73.5138 38.2056 76.3906 39.9923C79.2674 41.7791 81.6503 44.3406 83.2992 47.4186C83.571 47.9379 83.7287 48.5158 83.7602 49.1091C83.7918 49.7024 83.6965 50.2956 83.4814 50.8441C83.2663 51.3926 82.9371 51.8822 82.5185 52.2759C82.1 52.6697 81.6029 52.9575 81.0646 53.1177C80.2794 53.3592 79.4407 53.315 78.6817 52.9922C77.9227 52.6694 77.2868 52.0865 76.8748 51.3358C75.6303 49.0096 73.7042 47.1802 71.3903 46.1266C69.0765 45.0731 66.5021 44.8533 64.0598 45.5007C61.6175 46.1482 59.4415 47.6274 57.8637 49.7126C56.286 51.7978 55.3932 54.3745 55.3215 57.0496C55.2499 59.7247 56.0033 62.3513 57.4669 64.5286C58.9304 66.7059 61.0238 68.3144 63.4274 69.1086C65.8311 69.9028 68.4132 69.8391 70.7796 68.9272C73.1461 68.0154 75.167 66.3055 76.534 64.0584C76.9894 63.3443 77.6567 62.813 78.4292 62.5493C79.2018 62.2855 80.0352 62.3045 80.7965 62.6032C81.3233 62.7954 81.8023 63.1119 82.1977 63.529C82.593 63.9461 82.8944 64.4529 83.0793 65.0115C83.2642 65.5701 83.3278 66.1659 83.2652 66.7543C83.2027 67.3427 83.0157 67.9085 82.7182 68.4091C80.9915 71.2129 78.6356 73.5158 75.863 75.11C73.0904 76.7042 69.9881 77.5398 66.836 77.5412Z" fill="#F7F7F8"/>
<path d="M192.223 74.9991C192.235 75.3898 192.161 75.778 192.007 76.1331C191.854 76.4883 191.624 76.8005 191.338 77.0453C190.787 77.5451 190.087 77.819 189.363 77.8174C187.835 77.8174 186.972 76.8611 186.762 74.9427C184.529 76.8236 181.757 77.835 178.908 77.8085C175.395 77.7968 172.028 76.3089 169.542 73.6693C167.056 71.0296 165.653 67.4522 165.637 63.7169C165.612 61.8442 165.937 59.9848 166.593 58.2468C167.249 56.5089 168.224 54.927 169.461 53.5931C170.697 52.2592 172.171 51.2 173.796 50.477C175.421 49.7541 177.165 49.3817 178.926 49.3817C180.688 49.3817 182.431 49.7541 184.056 50.477C185.681 51.2 187.155 52.2592 188.391 53.5931C189.628 54.927 190.603 56.5089 191.259 58.2468C191.915 59.9848 192.24 61.8442 192.215 63.7169L192.223 74.9991ZM186.762 63.6901C186.779 62.6055 186.584 61.529 186.191 60.5282C185.797 59.5275 185.213 58.6242 184.475 57.8753C183.015 56.3379 181.043 55.4755 178.988 55.4755C176.932 55.4755 174.961 56.3379 173.5 57.8753C172.775 58.6347 172.199 59.5398 171.806 60.5381C171.413 61.5364 171.21 62.6079 171.21 63.6901C171.21 64.7724 171.413 65.8438 171.806 66.8421C172.199 67.8404 172.775 68.7456 173.5 69.505C174.962 71.0402 176.933 71.9011 178.988 71.9011C181.042 71.9011 183.013 71.0402 184.475 69.505C185.213 68.756 185.797 67.8527 186.191 66.852C186.584 65.8513 186.779 64.7747 186.762 63.6901Z" fill="#3A3A3A"/>
<path d="M200.804 74.8922C200.804 75.6663 200.458 76.3384 199.765 76.9086C199.069 77.4788 198.413 77.7639 197.787 77.7639C197.162 77.7639 196.567 77.4313 195.891 76.7691C195.215 76.1068 194.877 75.4267 194.877 74.7258V41.5384C194.877 40.7663 195.223 40.0922 195.916 39.522C196.609 38.9518 197.251 38.6667 197.84 38.6667C198.43 38.6667 199.114 38.9904 199.796 39.6348C200.477 40.2793 200.809 40.9682 200.809 41.7137L200.804 74.8922Z" fill="#3A3A3A"/>
<path d="M229.881 66.8203H209.541C210.124 68.3323 211.12 69.6245 212.399 70.5309C213.678 71.4374 215.182 71.9168 216.72 71.9075H219.84C220.56 71.9401 221.245 72.2517 221.764 72.7836C222.036 73.0459 222.251 73.3674 222.396 73.7261C222.541 74.0848 222.611 74.4723 222.602 74.8625C222.602 76.3236 221.874 77.2363 220.418 77.6006C219.898 77.7491 218.65 77.8224 216.672 77.8204C213.159 77.8047 209.795 76.3141 207.311 73.6731C204.827 71.0322 203.425 67.4547 203.41 63.7198C203.412 59.9756 204.808 56.3846 207.294 53.7318C209.779 51.079 213.151 49.5801 216.672 49.5628C219.31 49.558 221.889 50.3857 224.084 51.9411C226.279 53.4965 227.99 55.7096 229.001 58.2999C229.521 59.636 229.819 61.0579 229.881 62.5022V66.8203ZM223.485 60.9015C223.031 59.3403 222.145 57.9608 220.943 56.9428C219.737 55.9571 218.251 55.4394 216.731 55.4757C215.141 55.4772 213.59 55.9978 212.288 56.9671C210.985 57.9365 209.994 59.3078 209.449 60.8955L223.485 60.9015Z" fill="#3A3A3A"/>
<path d="M258.277 74.8387C258.265 75.6256 257.965 76.3765 257.44 76.9313C256.915 77.4861 256.207 77.8009 255.467 77.8085C254.754 77.8136 254.067 77.5288 253.545 77.0126C253.275 76.7622 253.06 76.4518 252.916 76.1034C252.771 75.755 252.7 75.377 252.707 74.9961V64.2484C252.669 62.0973 251.838 60.048 250.394 58.5412C248.949 57.0343 247.006 56.1902 244.983 56.1902C242.959 56.1902 241.016 57.0343 239.572 58.5412C238.127 60.048 237.297 62.0973 237.258 64.2484V74.7853C237.26 75.1809 237.186 75.5728 237.042 75.9376C236.898 76.3024 236.687 76.6327 236.42 76.9087C236.169 77.1981 235.863 77.4284 235.523 77.5849C235.183 77.7414 234.816 77.8206 234.445 77.8174C233.731 77.8224 233.043 77.5366 232.521 77.0185C232.247 76.7582 232.03 76.4372 231.885 76.078C231.74 75.7188 231.671 75.3303 231.683 74.9397V64.1475C231.69 60.4062 233.095 56.8211 235.588 54.1809C238.081 51.5407 241.458 50.0617 244.977 50.0692C248.496 50.0767 251.868 51.5701 254.351 54.2208C256.834 56.8716 258.225 60.4626 258.218 64.2039C258.222 64.1762 258.242 67.7211 258.277 74.8387Z" fill="#3A3A3A"/>
<path d="M286.986 63.3516C287.014 65.2426 286.682 67.1202 286.01 68.8713C285.338 70.6224 284.34 72.2108 283.075 73.5409C281.866 74.8989 280.404 75.9754 278.784 76.7023C277.163 77.4291 275.418 77.7907 273.659 77.764C270.021 77.764 266.9 76.3533 264.299 73.532C261.797 70.8019 260.397 67.141 260.397 63.3293C260.397 59.5176 261.797 55.8567 264.299 53.1266C266.906 50.3053 270.026 48.8956 273.659 48.8976C276.482 48.9023 279.218 49.937 281.41 51.8288V41.6959C281.409 41.3007 281.482 40.9092 281.626 40.5449C281.77 40.1806 281.982 39.8509 282.248 39.5754C282.5 39.2858 282.806 39.0553 283.147 38.8988C283.487 38.7423 283.855 38.6633 284.226 38.6667C284.94 38.6611 285.628 38.9483 286.148 39.4685C286.422 39.7288 286.639 40.0499 286.784 40.4091C286.928 40.7682 286.997 41.1568 286.986 41.5474V63.3516ZM281.421 63.3516C281.439 62.2448 281.245 61.1457 280.852 60.1207C280.459 59.0957 279.874 58.1662 279.134 57.3882C278.421 56.6075 277.568 55.9869 276.625 55.5631C275.683 55.1393 274.67 54.9209 273.647 54.9209C272.623 54.9209 271.61 55.1393 270.668 55.5631C269.725 55.9869 268.872 56.6075 268.159 57.3882C267.418 58.1656 266.832 59.095 266.439 60.1201C266.045 61.1451 265.851 62.2445 265.869 63.3516C265.852 64.4629 266.047 65.5663 266.44 66.596C266.834 67.6257 267.418 68.5605 268.159 69.3446C268.867 70.1339 269.719 70.7622 270.662 71.1915C271.605 71.6208 272.621 71.8421 273.647 71.8421C274.673 71.8421 275.688 71.6208 276.631 71.1915C277.574 70.7622 278.426 70.1339 279.134 69.3446C279.873 68.5607 280.457 67.6267 280.85 66.5981C281.243 65.5696 281.437 64.4676 281.421 63.3575V63.3516Z" fill="#3A3A3A"/>
<path d="M315.747 74.9991C315.759 75.3896 315.686 75.7777 315.533 76.1329C315.38 76.488 315.151 76.8004 314.865 77.0453C314.313 77.5449 313.612 77.8187 312.887 77.8174C311.362 77.8174 310.495 76.8592 310.287 74.9427C308.054 76.8268 305.282 77.8414 302.432 77.8174C298.919 77.8018 295.554 76.3112 293.07 73.6702C290.587 71.0292 289.185 67.4517 289.17 63.7169C289.144 61.8442 289.469 59.9848 290.126 58.2468C290.782 56.5089 291.757 54.927 292.993 53.5931C294.23 52.2592 295.703 51.2 297.328 50.477C298.953 49.7541 300.697 49.3817 302.459 49.3817C304.22 49.3817 305.964 49.7541 307.589 50.477C309.214 51.2 310.687 52.2592 311.924 53.5931C313.16 54.927 314.135 56.5089 314.792 58.2468C315.448 59.9848 315.773 61.8442 315.747 63.7169V74.9991ZM310.287 63.6901C310.303 62.6055 310.109 61.529 309.715 60.5282C309.321 59.5275 308.737 58.6242 307.999 57.8753C306.539 56.3379 304.567 55.4755 302.512 55.4755C300.457 55.4755 298.485 56.3379 297.024 57.8753C296.3 58.6351 295.724 59.5404 295.332 60.5386C294.939 61.5368 294.737 62.6081 294.737 63.6901C294.737 64.7722 294.939 65.8434 295.332 66.8416C295.724 67.8399 296.3 68.7452 297.024 69.505C298.486 71.0402 300.457 71.9011 302.512 71.9011C304.566 71.9011 306.538 71.0402 307.999 69.505C308.737 68.756 309.321 67.8527 309.715 66.852C310.109 65.8513 310.303 64.7747 310.287 63.6901Z" fill="#3A3A3A"/>
<path d="M336.398 52.5475C336.404 52.8949 336.345 53.2401 336.224 53.563C336.103 53.8858 335.923 54.1797 335.694 54.4273C335.48 54.6735 335.221 54.8696 334.933 55.0031C334.644 55.1366 334.332 55.2045 334.018 55.2025H330.884C329.865 55.1894 328.855 55.4033 327.919 55.8304C326.983 56.2575 326.141 56.8883 325.448 57.6822C324.712 58.4732 324.133 59.4129 323.745 60.4458C323.356 61.4786 323.166 62.5838 323.186 63.6961V74.7823C323.196 75.1372 323.131 75.49 322.996 75.8148C322.862 76.1396 322.66 76.4281 322.406 76.6592C321.921 77.1229 321.291 77.379 320.638 77.3779C320.012 77.3822 319.41 77.124 318.962 76.6592C318.724 76.4286 318.536 76.146 318.41 75.8308C318.284 75.5155 318.224 75.1751 318.233 74.8328V63.6634C318.185 60.1442 319.424 56.7428 321.691 54.1779C322.76 52.8919 324.059 51.8454 325.513 51.0999C326.967 50.3544 328.546 49.9247 330.158 49.836H334.627V49.9459C335.805 50.3538 336.396 51.221 336.398 52.5475Z" fill="#3A3A3A"/>
<path d="M145.805 78.1233C143.128 78.1195 140.479 77.5444 138.015 76.432C135.551 75.3196 133.322 73.6925 131.46 71.6473C129.598 69.602 128.141 67.1801 127.176 64.5252C126.21 61.8703 125.756 59.0364 125.84 56.1914C126.161 45.4794 134.244 36.4958 144.297 35.6999C148.36 35.3711 152.42 36.371 155.934 38.5654C159.447 40.7598 162.245 44.0437 163.953 47.977C164.137 48.4135 164.228 48.8876 164.22 49.3657C164.212 49.8439 164.106 50.3144 163.909 50.7441C163.711 51.1737 163.428 51.5521 163.078 51.8524C162.728 52.1527 162.32 52.3677 161.883 52.4821C161.185 52.6745 160.445 52.5993 159.793 52.2697C159.141 51.9401 158.619 51.3771 158.319 50.6795C157.075 47.8462 155.014 45.5091 152.434 44.0086C149.854 42.5081 146.891 41.9226 143.976 42.3373C137.339 43.255 132.189 49.3757 132.013 56.4914C131.934 59.7754 132.893 62.9927 134.737 65.6282C136.582 68.2638 139.205 70.1653 142.186 71.0283C145.167 71.8913 148.334 71.6659 151.181 70.3883C154.027 69.1106 156.388 66.8545 157.886 63.9812C158.231 63.3033 158.789 62.7756 159.462 62.4901C160.135 62.2046 160.881 62.1795 161.57 62.419C161.998 62.5647 162.39 62.8083 162.72 63.1325C163.049 63.4567 163.308 63.8537 163.477 64.2956C163.647 64.7375 163.723 65.2136 163.701 65.6903C163.679 66.167 163.559 66.6328 163.35 67.0549C161.634 70.4083 159.098 73.2069 156.01 75.155C152.922 77.1032 149.396 78.1287 145.805 78.1233Z" fill="#3A3A3A"/>
</svg>
