<svg aria-hidden="true" style="position: absolute; width: 0px; height: 0px; overflow: hidden;" version="1.1" xmlns="http://www.w3.org/2000/svg" xmlns:xlink="http://www.w3.org/1999/xlink">
    <defs>
        <symbol id="add" viewBox="0 0 24 24">
            <path d="M12 6C12.5523 6 13 6.44772 13 7V11H17C17.5523 11 18 11.4477 18 12C18 12.5523 17.5523 13 17 13H13V17C13 17.5523 12.5523 18 12 18C11.4477 18 11 17.5523 11 17V13H7C6.44772 13 6 12.5523 6 12C6 11.4477 6.44772 11 7 11H11V7C11 6.44772 11.4477 6 12 6Z"/>
            <path fill-rule="evenodd" clip-rule="evenodd" d="M2 4.5C2 3.11929 3.11929 2 4.5 2H19.5C20.8807 2 22 3.11929 22 4.5V19.5C22 20.8807 20.8807 22 19.5 22H4.5C3.11929 22 2 20.8807 2 19.5V4.5ZM4.5 4C4.22386 4 4 4.22386 4 4.5V19.5C4 19.7761 4.22386 20 4.5 20H19.5C19.7761 20 20 19.7761 20 19.5V4.5C20 4.22386 19.7761 4 19.5 4H4.5Z"/>
        </symbol>
        <symbol id="info" viewBox="0 0 16 16" >
            <path d="M8 7a.75.75 0 01.75.75v3.5a.75.75 0 01-1.5 0v-3.5A.75.75 0 018 7zM8 4a1 1 0 000 2h.007a1 1 0 000-2H8z"/>
            <path fill-rule="evenodd" d="M0 8a8 8 0 1116 0A8 8 0 010 8zm8-6.5a6.5 6.5 0 100 13 6.5 6.5 0 000-13z" clip-rule="evenodd"/>
        </symbol>
        <symbol id="apple" viewBox="0 0 24 24" >
            <path d="M17.5703 7.07026C17.4713 7.128 15.1152 8.3465 15.1152 11.0482C15.2262 14.1293 18.0885 15.2098 18.1376 15.2098C18.0885 15.2675 17.7054 16.6817 16.5708 18.1642C15.6704 19.4412 14.671 20.7286 13.1533 20.7286C11.7097 20.7286 11.1915 19.8776 9.52582 19.8776C7.737 19.8776 7.23086 20.7286 5.86128 20.7286C4.34365 20.7286 3.27019 19.3722 2.32067 18.1072C1.08708 16.4515 0.0385784 13.8533 0.00156286 11.3586C-0.0233824 10.0366 0.248601 8.73716 0.939021 7.6334C1.9135 6.09247 3.65322 5.04644 5.55309 5.01195C7.00876 4.96621 8.30431 5.94325 9.19268 5.94325C10.044 5.94325 11.6357 5.01195 13.4366 5.01195C14.2139 5.0127 16.2868 5.2309 17.5703 7.07026ZM9.06956 4.748C8.81045 3.54076 9.52582 2.33351 10.1921 1.56342C11.0435 0.632117 12.3881 0 13.5476 0C13.6217 1.20725 13.1525 2.39125 12.3141 3.25357C11.5617 4.18487 10.2661 4.88597 9.06956 4.748Z"/>
        </symbol>
        <symbol id="telegram" viewBox="0 0 32 32" >
            <path d="M 26.070313 3.996094 C 25.734375 4.011719 25.417969 4.109375 25.136719 4.21875 L 25.132813 4.21875 C 24.847656 4.332031 23.492188 4.902344 21.433594 5.765625 C 19.375 6.632813 16.703125 7.757813 14.050781 8.875 C 8.753906 11.105469 3.546875 13.300781 3.546875 13.300781 L 3.609375 13.277344 C 3.609375 13.277344 3.25 13.394531 2.875 13.652344 C 2.683594 13.777344 2.472656 13.949219 2.289063 14.21875 C 2.105469 14.488281 1.957031 14.902344 2.011719 15.328125 C 2.101563 16.050781 2.570313 16.484375 2.90625 16.722656 C 3.246094 16.964844 3.570313 17.078125 3.570313 17.078125 L 3.578125 17.078125 L 8.460938 18.722656 C 8.679688 19.425781 9.949219 23.597656 10.253906 24.558594 C 10.433594 25.132813 10.609375 25.492188 10.828125 25.765625 C 10.933594 25.90625 11.058594 26.023438 11.207031 26.117188 C 11.265625 26.152344 11.328125 26.179688 11.390625 26.203125 C 11.410156 26.214844 11.429688 26.21875 11.453125 26.222656 L 11.402344 26.210938 C 11.417969 26.214844 11.429688 26.226563 11.441406 26.230469 C 11.480469 26.242188 11.507813 26.246094 11.558594 26.253906 C 12.332031 26.488281 12.953125 26.007813 12.953125 26.007813 L 12.988281 25.980469 L 15.871094 23.355469 L 20.703125 27.0625 L 20.8125 27.109375 C 21.820313 27.550781 22.839844 27.304688 23.378906 26.871094 C 23.921875 26.433594 24.132813 25.875 24.132813 25.875 L 24.167969 25.785156 L 27.902344 6.65625 C 28.007813 6.183594 28.035156 5.742188 27.917969 5.3125 C 27.800781 4.882813 27.5 4.480469 27.136719 4.265625 C 26.769531 4.046875 26.40625 3.980469 26.070313 3.996094 Z M 25.96875 6.046875 C 25.964844 6.109375 25.976563 6.101563 25.949219 6.222656 L 25.949219 6.234375 L 22.25 25.164063 C 22.234375 25.191406 22.207031 25.25 22.132813 25.308594 C 22.054688 25.371094 21.992188 25.410156 21.667969 25.28125 L 15.757813 20.75 L 12.1875 24.003906 L 12.9375 19.214844 C 12.9375 19.214844 22.195313 10.585938 22.59375 10.214844 C 22.992188 9.84375 22.859375 9.765625 22.859375 9.765625 C 22.886719 9.3125 22.257813 9.632813 22.257813 9.632813 L 10.082031 17.175781 L 10.078125 17.15625 L 4.242188 15.191406 L 4.242188 15.1875 C 4.238281 15.1875 4.230469 15.183594 4.226563 15.183594 C 4.230469 15.183594 4.257813 15.171875 4.257813 15.171875 L 4.289063 15.15625 L 4.320313 15.144531 C 4.320313 15.144531 9.53125 12.949219 14.828125 10.71875 C 17.480469 9.601563 20.152344 8.476563 22.207031 7.609375 C 24.261719 6.746094 25.78125 6.113281 25.867188 6.078125 C 25.949219 6.046875 25.910156 6.046875 25.96875 6.046875 Z"/>
        </symbol>
        <symbol id="telegram-logo" viewBox="0 0 256 256" >
            <path d="M128,0 C57.307,0 0,57.307 0,128 L0,128 C0,198.693 57.307,256 128,256 L128,256 C198.693,256 256,198.693 256,128 L256,128 C256,57.307 198.693,0 128,0 L128,0 Z" fill="#40B3E0">
            </path>
            <path d="M190.2826,73.6308 L167.4206,188.8978 C167.4206,188.8978 164.2236,196.8918 155.4306,193.0548 L102.6726,152.6068 L83.4886,143.3348 L51.1946,132.4628 C51.1946,132.4628 46.2386,130.7048 45.7586,126.8678 C45.2796,123.0308 51.3546,120.9528 51.3546,120.9528 L179.7306,70.5928 C179.7306,70.5928 190.2826,65.9568 190.2826,73.6308" fill="#FFFFFF">
            </path>
            <path d="M98.6178,187.6035 C98.6178,187.6035 97.0778,187.4595 95.1588,181.3835 C93.2408,175.3085 83.4888,143.3345 83.4888,143.3345 L161.0258,94.0945 C161.0258,94.0945 165.5028,91.3765 165.3428,94.0945 C165.3428,94.0945 166.1418,94.5735 163.7438,96.8115 C161.3458,99.0505 102.8328,151.6475 102.8328,151.6475" fill="#D2E5F1">
            </path>
            <path d="M122.9015,168.1154 L102.0335,187.1414 C102.0335,187.1414 100.4025,188.3794 98.6175,187.6034 L102.6135,152.2624" fill="#B5CFE4">
            </path>
        </symbol>
        <symbol id="telegram-full" viewBox="0 0 32 32" >
            <path d="M29.919 6.163l-4.225 19.925c-0.319 1.406-1.15 1.756-2.331 1.094l-6.438-4.744-3.106 2.988c-0.344 0.344-0.631 0.631-1.294 0.631l0.463-6.556 11.931-10.781c0.519-0.462-0.113-0.719-0.806-0.256l-14.75 9.288-6.35-1.988c-1.381-0.431-1.406-1.381 0.288-2.044l24.837-9.569c1.15-0.431 2.156 0.256 1.781 2.013z"/>
        </symbol>
        <symbol id="search" viewBox="0 0 24 24" >
            <path fill-rule="evenodd" clip-rule="evenodd" d="M10 5C7.23858 5 5 7.23858 5 10C5 12.7614 7.23858 15 10 15C11.381 15 12.6296 14.4415 13.5355 13.5355C14.4415 12.6296 15 11.381 15 10C15 7.23858 12.7614 5 10 5ZM3 10C3 6.13401 6.13401 3 10 3C13.866 3 17 6.13401 17 10C17 11.5719 16.481 13.0239 15.6063 14.1921L20.7071 19.2929C21.0976 19.6834 21.0976 20.3166 20.7071 20.7071C20.3166 21.0976 19.6834 21.0976 19.2929 20.7071L14.1921 15.6063C13.0239 16.481 11.5719 17 10 17C6.13401 17 3 13.866 3 10Z"/>
        </symbol>
        <symbol id="google" viewBox="0 0 20 20" >
            <path d="M18.1713 8.36791H17.5001V8.33333H10.0001V11.6667H14.7097C14.0226 13.6071 12.1763 15 10.0001 15C7.23883 15 5.00008 12.7612 5.00008 10C5.00008 7.23875 7.23883 5 10.0001 5C11.2747 5 12.4342 5.48083 13.3172 6.26625L15.6742 3.90916C14.1859 2.52208 12.1951 1.66666 10.0001 1.66666C5.398 1.66666 1.66675 5.39791 1.66675 10C1.66675 14.6021 5.398 18.3333 10.0001 18.3333C14.6022 18.3333 18.3334 14.6021 18.3334 10C18.3334 9.44125 18.2759 8.89583 18.1713 8.36791Z" fill="#FFC107"/>
            <path d="M2.62744 6.12125L5.36536 8.12916C6.10619 6.295 7.90036 5 9.99994 5C11.2745 5 12.4341 5.48083 13.317 6.26625L15.6741 3.90916C14.1858 2.52208 12.1949 1.66666 9.99994 1.66666C6.79911 1.66666 4.02327 3.47375 2.62744 6.12125Z" fill="#FF3D00"/>
            <path d="M10 18.3333C12.1525 18.3333 14.1084 17.5096 15.5871 16.17L13.008 13.9875C12.1432 14.6452 11.0865 15.0008 10 15C7.83255 15 5.99213 13.6179 5.2988 11.6892L2.5813 13.7829C3.96047 16.4817 6.7613 18.3333 10 18.3333Z" fill="#4CAF50"/>
            <path d="M18.1713 8.36791H17.5V8.33333H10V11.6667H14.7096C14.3809 12.5902 13.7889 13.3972 13.0067 13.9879L13.0079 13.9871L15.5871 16.1696C15.4046 16.3354 18.3333 14.1667 18.3333 9.99999C18.3333 9.44124 18.2758 8.89583 18.1713 8.36791Z" fill="#1976D2"/>
        </symbol>
        <symbol id="calendar" viewBox="0 0 24 26" >
            <path fill-rule="evenodd" clip-rule="evenodd" d="M16.1117 13.8459H13.2321C12.7042 13.8459 12.2723 14.3203 12.2723 14.9002V18.063C12.2723 18.6429 12.7042 19.1173 13.2321 19.1173H16.1117C16.6397 19.1173 17.0716 18.6429 17.0716 18.063V14.9002C17.0716 14.3203 16.6397 13.8459 16.1117 13.8459ZM16.1117 3.30298V4.35727H8.43285V3.30298C8.43285 2.72312 8.00091 2.24869 7.47299 2.24869C6.94506 2.24869 6.51313 2.72312 6.51313 3.30298V4.35727H5.55327C4.48782 4.35727 3.64314 5.30613 3.64314 6.46585L3.63354 21.2259C3.63354 22.3856 4.48782 23.3345 5.55327 23.3345H18.9913C20.0472 23.3345 20.911 22.3856 20.911 21.2259V6.46585C20.911 5.30613 20.0472 4.35727 18.9913 4.35727H18.0314V3.30298C18.0314 2.72312 17.5995 2.24869 17.0716 2.24869C16.5437 2.24869 16.1117 2.72312 16.1117 3.30298ZM18.0315 21.2259H6.51313C5.9852 21.2259 5.55327 20.7515 5.55327 20.1716V9.62872H18.9913V20.1716C18.9913 20.7515 18.5594 21.2259 18.0315 21.2259Z"/>
        </symbol>
        <symbol id="cancel" viewBox="0 0 20 20" >
            <path d="M12.2421 10.0006L16.0521 13.8106C16.2996 14.0581 16.2996 14.46 16.0521 14.7075L14.7077 16.0519C14.4602 16.2994 14.0589 16.2994 13.8108 16.0519L10.0002 12.2419L6.18957 16.0519C5.94207 16.2994 5.54082 16.2994 5.29332 16.0519L3.94832 14.7075C3.70082 14.46 3.70082 14.0587 3.94832 13.8106L7.75895 10.0006L3.94832 6.19C3.70082 5.9425 3.70082 5.54062 3.94832 5.29312L5.29395 3.94875C5.54145 3.70125 5.9427 3.70125 6.1902 3.94875L10.0002 7.75937L13.8108 3.94875C14.0583 3.70125 14.4596 3.70125 14.7077 3.94875L16.0521 5.29375C16.2996 5.54125 16.2996 5.9425 16.0521 6.19062L12.2421 10.0006Z"/>
        </symbol>
        <symbol id="photograph" viewBox="0 0 27 27" >
            <path d="M13.3333 14.4C13.3333 16.0542 11.838 17.4 10 17.4C8.162 17.4 6.66667 16.0542 6.66667 14.4C6.66667 12.7458 8.162 11.4 10 11.4C11.838 11.4 13.3333 12.7458 13.3333 14.4ZM2 11.4H4V10.2H2V11.4ZM14.6667 14.4C14.6667 16.716 12.5733 18.6 10 18.6C7.42667 18.6 5.33333 16.716 5.33333 14.4C5.33333 12.084 7.42667 10.2 10 10.2C12.5733 10.2 14.6667 12.084 14.6667 14.4ZM14 14.4C14 12.4116 12.2093 10.8 10 10.8C7.79067 10.8 6 12.4116 6 14.4C6 16.3884 7.79067 18 10 18C12.2093 18 14 16.3884 14 14.4ZM20 10.2V19.2C20 20.1942 19.1047 21 18 21H2C0.895333 21 0 20.1942 0 19.2V10.2C0 9.2058 0.895333 8.4 2 8.4H5.33333L6.114 6.9948C6.45267 6.3852 7.14533 6 7.90267 6H12.0973C12.8547 6 13.5473 6.3852 13.886 6.9948L14.6667 8.4H18C19.1047 8.4 20 9.2058 20 10.2ZM4.66667 11.4V10.2C4.66667 9.8688 4.368 9.6 4 9.6H2C1.632 9.6 1.33333 9.8688 1.33333 10.2V11.4C1.33333 11.7312 1.632 12 2 12H4C4.368 12 4.66667 11.7312 4.66667 11.4ZM15.3333 14.4C15.3333 11.7492 12.9453 9.6 10 9.6C7.05467 9.6 4.66667 11.7492 4.66667 14.4C4.66667 17.0508 7.05467 19.2 10 19.2C12.9453 19.2 15.3333 17.0508 15.3333 14.4Z"/>
        </symbol>
        <symbol id="pencil" viewBox="0 0 12 12" >
            <path d="M10.7362 1.66701L9.95825 0.889021C9.43959 0.370367 8.59868 0.370347 8.07999 0.889021L0.766646 8.20234L0.503366 10.5719C0.468129 10.8891 0.736203 11.1571 1.05338 11.1219L3.42292 10.8586L10.7363 3.54527C11.2549 3.0266 11.2549 2.18567 10.7362 1.66701ZM8.76073 4.58162L4.11107 9.23128V8.51026H3.11498V7.51416H2.39395L7.04361 2.8645L8.76073 4.58162ZM3.11803 10.2243L1.89377 10.3604L1.26488 9.73147L1.40091 8.50721L1.8129 8.09522H2.53392V9.09131H3.53002V9.81234L3.11803 10.2243ZM10.2667 3.0757L9.23029 4.11207L7.51317 2.39495L8.54954 1.35858C8.80904 1.09907 9.22913 1.09903 9.48867 1.35858L10.2667 2.13657C10.5262 2.39609 10.5262 2.81613 10.2667 3.0757Z"/>
        </symbol>
        <symbol id="edit" viewBox="0 0 25 25" >
            <path d="M10.7362 1.66701L9.95825 0.889021C9.43959 0.370367 8.59868 0.370347 8.07999 0.889021L0.766646 8.20234L0.503366 10.5719C0.468129 10.8891 0.736203 11.1571 1.05338 11.1219L3.42292 10.8586L10.7363 3.54527C11.2549 3.0266 11.2549 2.18567 10.7362 1.66701ZM8.76073 4.58162L4.11107 9.23128V8.51026H3.11498V7.51416H2.39395L7.04361 2.8645L8.76073 4.58162ZM3.11803 10.2243L1.89377 10.3604L1.26488 9.73147L1.40091 8.50721L1.8129 8.09522H2.53392V9.09131H3.53002V9.81234L3.11803 10.2243ZM10.2667 3.0757L9.23029 4.11207L7.51317 2.39495L8.54954 1.35858C8.80904 1.09907 9.22913 1.09903 9.48867 1.35858L10.2667 2.13657C10.5262 2.39609 10.5262 2.81613 10.2667 3.0757Z"/>
        </symbol>
        <symbol id="exit" viewBox="0 0 14 16" >
            <path d="M1.3125 2H4.92188C5.10234 2 5.25 2.16875 5.25 2.375V2.625C5.25 2.83125 5.10234 3 4.92188 3H1.3125C1.07187 3 0.875 3.225 0.875 3.5V12.5C0.875 12.775 1.07187 13 1.3125 13H4.92188C5.10234 13 5.25 13.1687 5.25 13.375V13.625C5.25 13.8313 5.10234 14 4.92188 14H1.3125C0.587891 14 0 13.3281 0 12.5V3.5C0 2.67188 0.587891 2 1.3125 2ZM8.94141 2.60938L8.74727 2.83125C8.61875 2.97812 8.61875 3.21562 8.74727 3.3625L12.3566 7.46875H4.70312C4.52266 7.46875 4.375 7.6375 4.375 7.84375V8.15625C4.375 8.3625 4.52266 8.53125 4.70312 8.53125H12.3566L8.75 12.6375C8.62148 12.7844 8.62148 13.0219 8.75 13.1687L8.94414 13.3906C9.07266 13.5375 9.28047 13.5375 9.40898 13.3906L13.907 8.26562C14.0355 8.11875 14.0355 7.88125 13.907 7.73438L9.40625 2.60938C9.27773 2.4625 9.06992 2.4625 8.94141 2.60938Z"/>
        </symbol>
        <symbol id="fly" viewBox="0 0 16 16" >
            <path d="M14.5 0.134377L0.499985 8.20938C-0.218765 8.625 -0.14689 9.68438 0.618735 10L4.99998 11.8125V15C4.99998 15.9438 6.18123 16.3531 6.77186 15.6344L8.66873 13.3281L12.6187 14.9594C13.2156 15.2063 13.8906 14.8281 13.9875 14.1875L15.9875 1.15313C16.1156 0.318752 15.2187 -0.281248 14.5 0.134377ZM5.99998 15V12.225L7.70311 12.9281L5.99998 15ZM13 14.0344L6.55623 11.3719L12.7906 4.00313C12.9406 3.82813 12.7 3.59063 12.525 3.74063L4.54686 10.5406L0.999985 9.07813L15 1L13 14.0344Z"/>
        </symbol>
        <symbol id="trash" viewBox="0 0 12 14" >
            <path d="M7.92857 11.8125H8.35714C8.41397 11.8125 8.46848 11.7895 8.50867 11.7484C8.54885 11.7074 8.57143 11.6518 8.57143 11.5938V4.15625C8.57143 4.09823 8.54885 4.04259 8.50867 4.00157C8.46848 3.96055 8.41397 3.9375 8.35714 3.9375H7.92857C7.87174 3.9375 7.81723 3.96055 7.77705 4.00157C7.73686 4.04259 7.71429 4.09823 7.71429 4.15625V11.5938C7.71429 11.6518 7.73686 11.7074 7.77705 11.7484C7.81723 11.7895 7.87174 11.8125 7.92857 11.8125ZM3.64286 11.8125H4.07143C4.12826 11.8125 4.18277 11.7895 4.22295 11.7484C4.26314 11.7074 4.28571 11.6518 4.28571 11.5938V4.15625C4.28571 4.09823 4.26314 4.04259 4.22295 4.00157C4.18277 3.96055 4.12826 3.9375 4.07143 3.9375H3.64286C3.58602 3.9375 3.53152 3.96055 3.49133 4.00157C3.45115 4.04259 3.42857 4.09823 3.42857 4.15625V11.5938C3.42857 11.6518 3.45115 11.7074 3.49133 11.7484C3.53152 11.7895 3.58602 11.8125 3.64286 11.8125ZM11.7857 1.75H9L8.1 0.525C7.98024 0.361993 7.82495 0.229688 7.64642 0.138564C7.46789 0.0474404 7.27103 0 7.07143 0L4.92857 0C4.72897 0 4.53211 0.0474404 4.35358 0.138564C4.17505 0.229688 4.01976 0.361993 3.9 0.525L3 1.75H0.214286C0.157454 1.75 0.102949 1.77305 0.0627628 1.81407C0.0225765 1.85509 0 1.91073 0 1.96875L0 2.40625C0 2.46427 0.0225765 2.51991 0.0627628 2.56093C0.102949 2.60195 0.157454 2.625 0.214286 2.625H0.857143V12.6875C0.857143 13.0356 0.992602 13.3694 1.23372 13.6156C1.47484 13.8617 1.80186 14 2.14286 14H9.85714C10.1981 14 10.5252 13.8617 10.7663 13.6156C11.0074 13.3694 11.1429 13.0356 11.1429 12.6875V2.625H11.7857C11.8425 2.625 11.8971 2.60195 11.9372 2.56093C11.9774 2.51991 12 2.46427 12 2.40625V1.96875C12 1.91073 11.9774 1.85509 11.9372 1.81407C11.8971 1.77305 11.8425 1.75 11.7857 1.75ZM4.58571 1.05C4.62578 0.995821 4.67757 0.951833 4.73705 0.921475C4.79653 0.891117 4.86207 0.875211 4.92857 0.875H7.07143C7.13793 0.875211 7.20347 0.891117 7.26295 0.921475C7.32243 0.951833 7.37422 0.995821 7.41429 1.05L7.92857 1.75H4.07143L4.58571 1.05ZM10.2857 12.6875C10.2857 12.8035 10.2406 12.9148 10.1602 12.9969C10.0798 13.0789 9.97081 13.125 9.85714 13.125H2.14286C2.02919 13.125 1.92018 13.0789 1.83981 12.9969C1.75944 12.9148 1.71429 12.8035 1.71429 12.6875V2.625H10.2857V12.6875ZM5.78571 11.8125H6.21429C6.27112 11.8125 6.32562 11.7895 6.36581 11.7484C6.406 11.7074 6.42857 11.6518 6.42857 11.5938V4.15625C6.42857 4.09823 6.406 4.04259 6.36581 4.00157C6.32562 3.96055 6.27112 3.9375 6.21429 3.9375H5.78571C5.72888 3.9375 5.67438 3.96055 5.63419 4.00157C5.59401 4.04259 5.57143 4.09823 5.57143 4.15625V11.5938C5.57143 11.6518 5.59401 11.7074 5.63419 11.7484C5.67438 11.7895 5.72888 11.8125 5.78571 11.8125Z"/>
        </symbol>
        <symbol id="yahoo" viewBox="0 0 2501 1798" >
            <path d="M928.078 0.157642C1453.72 0.157642 1855.28 389.095 1855.28 898.47C1855.28 1407.85 1453.72 1796.93 928.078 1796.93C402.44 1796.93 0.877625 1407.83 0.877625 898.47C0.877625 389.095 402.44 0.145142 928.078 0.145142V0.157642Z" fill="#6B0094"/>
            <path d="M888.253 590.42C890.378 559.245 892.653 528.233 897.065 497.208H191.703V590.42C262.553 594.82 331.44 601.52 402.453 605.92C535.49 767.858 668.528 929.795 803.853 1093.86V1344.58C728.44 1351.27 653.028 1355.67 577.603 1362.37V1444.32H1274.15V1362.37C1198.73 1357.81 1123.32 1355.68 1047.9 1353.41C1050.18 1264.76 1052.3 1173.83 1054.59 1085.03C1185.34 969.62 1314.14 854.383 1442.78 738.97C1509.22 734.558 1575.8 730.158 1644.53 723.47V614.745C1447.18 617.02 1251.94 619.158 1054.59 623.558V714.645C1127.72 719.045 1201.02 721.183 1274.15 723.458C1178.82 805.57 1083.33 885.395 987.99 967.495C890.365 847.683 792.765 725.745 695.14 605.92C759.465 599.233 823.778 594.82 888.253 590.42Z" fill="white"/>
            <path d="M2500.88 89.0952C2321.17 80.1327 2143.71 71.3202 1966.28 62.3452C1957.3 486.108 1948.49 911.995 1939.68 1335.76C2023.9 1344.58 2110.43 1353.41 2194.65 1362.37C2296.69 936.495 2398.85 512.72 2500.89 89.0952H2500.88ZM1915.19 1794.8H2221.27V1539.8C2110.43 1530.85 1999.58 1522.02 1888.58 1513.21C1897.39 1608.53 1906.38 1701.75 1915.19 1794.8Z" fill="#6B0094"/>
        </symbol>
        <symbol id="outlook" viewBox="0 0 2501 2398" >
            <path d="M2157.24 150.176H869.451C841.559 150.176 814.809 161.256 795.086 180.979C775.363 200.702 764.283 227.452 764.283 255.344V374.895L1490.12 599.613L2262.41 374.895V255.344C2262.41 227.452 2251.33 200.702 2231.6 180.979C2211.88 161.256 2185.13 150.176 2157.24 150.176Z" fill="#0364B8"/>
            <path d="M2386 1304.11C2396.98 1269.62 2405.73 1234.47 2412.22 1198.86C2412.21 1190.12 2409.9 1181.53 2405.52 1173.95C2401.14 1166.38 2394.85 1160.09 2387.28 1155.72L2386.3 1155.12L2386 1154.97L1574.17 692.497C1570.67 690.225 1567.04 688.149 1563.31 686.28C1547.78 678.572 1530.68 674.561 1513.35 674.561C1496.01 674.561 1478.91 678.572 1463.38 686.28C1459.65 688.123 1456.02 690.174 1452.52 692.422L640.688 1155.04L640.388 1155.19L639.489 1155.72C631.9 1160.08 625.593 1166.37 621.201 1173.94C616.809 1181.51 614.488 1190.11 614.47 1198.86C620.959 1234.47 629.716 1269.62 640.688 1304.11L1501.51 1933.69L2386 1304.11Z" fill="#0A2767"/>
            <path d="M1812.97 374.895H1288.63L1137.24 599.613L1288.63 824.332L1812.97 1273.77H2262.41V824.332L1812.97 374.895Z" fill="#28A8EA"/>
            <path d="M764.283 374.895H1288.63V824.332H764.283V374.895Z" fill="#0078D4"/>
            <path d="M1812.97 374.895H2262.41V824.332H1812.97V374.895Z" fill="#50D9FF"/>
            <path d="M1812.97 1273.77L1288.63 824.332H764.283V1273.77L1288.63 1723.21L2100.01 1855.64L1812.97 1273.77Z" fill="#0364B8"/>
            <path d="M1288.63 824.332H1812.97V1273.77H1288.63V824.332Z" fill="#0078D4"/>
            <path d="M764.283 1273.77H1288.63V1723.21H764.283V1273.77Z" fill="#064A8C"/>
            <path d="M1812.97 1273.77H2262.41V1723.21H1812.97V1273.77Z" fill="#0078D4"/>
            <path opacity="0.5" d="M1527.58 1889.35L644.208 1245.16L681.287 1179.99C681.287 1179.99 1486.15 1638.41 1498.44 1645.3C1503.47 1647.32 1508.85 1648.27 1514.26 1648.12C1519.67 1647.96 1525 1646.7 1529.9 1644.41L2348.85 1177.74L2386 1242.83L1527.58 1889.35Z" fill="#0A2767"/>
            <path d="M2387.28 1242.08L2386.23 1242.68L2386 1242.83L1574.17 1705.3C1558.05 1715.7 1539.52 1721.79 1520.38 1722.98C1501.23 1724.17 1482.1 1720.43 1464.81 1712.12L1747.5 2091.22L2365.78 2225.83V2226.13C2380.16 2215.72 2391.87 2202.06 2399.94 2186.25C2408.02 2170.44 2412.22 2152.94 2412.22 2135.19V1198.86C2412.22 1207.62 2409.92 1216.23 2405.54 1223.82C2401.16 1231.4 2394.86 1237.7 2387.28 1242.08Z" fill="#1490DF"/>
            <path opacity="0.05" d="M2412.22 2135.19V2079.91L1664.43 1653.84L1574.17 1705.3C1558.05 1715.7 1539.52 1721.79 1520.38 1722.98C1501.23 1724.17 1482.1 1720.43 1464.81 1712.12L1747.5 2091.22L2365.78 2225.83V2226.13C2380.16 2215.72 2391.87 2202.06 2399.94 2186.25C2408.02 2170.44 2412.22 2152.94 2412.22 2135.19Z" fill="black"/>
            <path opacity="0.1" d="M2408.48 2163.88L1588.78 1696.99L1574.17 1705.23C1558.05 1715.64 1539.53 1721.74 1520.39 1722.94C1501.24 1724.15 1482.1 1720.42 1464.81 1712.12L1747.5 2091.22L2365.78 2225.83V2226.13C2386.74 2210.94 2401.83 2188.98 2408.48 2163.96V2163.88Z" fill="black"/>
            <path d="M640.688 1243.06V1242.31H639.939L637.691 1240.81C630.531 1236.42 624.629 1230.24 620.56 1222.89C616.491 1215.54 614.393 1207.26 614.47 1198.86V2135.19C614.451 2149.95 617.344 2164.57 622.983 2178.21C628.623 2191.85 636.898 2204.25 647.336 2214.69C657.773 2225.12 670.168 2233.4 683.808 2239.04C697.449 2244.68 712.069 2247.57 726.83 2247.55H2299.86C2309.22 2247.46 2318.53 2246.2 2327.58 2243.81C2332.27 2242.99 2336.81 2241.47 2341.06 2239.31C2342.65 2239.16 2344.19 2238.64 2345.55 2237.81C2351.68 2235.31 2357.47 2232.03 2362.78 2228.08C2364.28 2227.33 2365.03 2227.33 2365.78 2225.83L640.688 1243.06Z" fill="#28A8EA"/>
            <path opacity="0.1" d="M1363.53 1848.08V624.557C1363.45 598.1 1352.91 572.748 1334.2 554.04C1315.49 535.331 1290.14 524.786 1263.68 524.707H766.53V1083.21L640.688 1154.97L640.313 1155.12L639.414 1155.64C631.828 1160.02 625.529 1166.32 621.15 1173.91C616.771 1181.5 614.467 1190.1 614.47 1198.86V1947.93H1263.68C1290.14 1947.85 1315.49 1937.3 1334.2 1918.59C1352.91 1899.88 1363.45 1874.53 1363.53 1848.08Z" fill="black"/>
            <path opacity="0.2" d="M1288.63 1922.98V699.463C1288.55 673.006 1278 647.654 1259.29 628.946C1240.59 610.238 1215.23 599.692 1188.78 599.613H766.53V1083.21L640.688 1154.97L640.313 1155.12L639.414 1155.64C631.828 1160.02 625.529 1166.32 621.15 1173.91C616.771 1181.5 614.467 1190.1 614.47 1198.86V2022.83H1188.78C1215.23 2022.75 1240.59 2012.21 1259.29 1993.5C1278 1974.79 1288.55 1949.44 1288.63 1922.98Z" fill="black"/>
            <path opacity="0.2" d="M1288.63 1773.17V699.463C1288.55 673.006 1278 647.654 1259.29 628.946C1240.59 610.238 1215.23 599.692 1188.78 599.613H766.53V1083.21L640.688 1154.97L640.313 1155.12L639.414 1155.64C631.828 1160.02 625.529 1166.32 621.15 1173.91C616.771 1181.5 614.467 1190.1 614.47 1198.86V1873.02H1188.78C1215.23 1872.94 1240.59 1862.4 1259.29 1843.69C1278 1824.98 1288.55 1799.63 1288.63 1773.17Z" fill="black"/>
            <path opacity="0.2" d="M1213.72 1773.17V699.463C1213.64 673.006 1203.1 647.654 1184.39 628.946C1165.68 610.238 1140.33 599.692 1113.87 599.613H766.53V1083.21L640.688 1154.97L640.313 1155.12L639.414 1155.64C631.828 1160.02 625.529 1166.32 621.15 1173.91C616.771 1181.5 614.467 1190.1 614.47 1198.86V1873.02H1113.87C1140.33 1872.94 1165.68 1862.4 1184.39 1843.69C1203.1 1824.98 1213.64 1799.63 1213.72 1773.17Z" fill="black"/>
            <path d="M115.07 599.613H1113.87C1140.35 599.613 1165.75 610.133 1184.48 628.859C1203.2 647.584 1213.72 672.981 1213.72 699.463V1698.26C1213.72 1724.75 1203.2 1750.14 1184.48 1768.87C1165.75 1787.59 1140.35 1798.11 1113.87 1798.11H115.07C88.5886 1798.11 63.1914 1787.59 44.4659 1768.87C25.7403 1750.14 15.2205 1724.75 15.2205 1698.26L15.2205 699.463C15.2205 672.981 25.7403 647.584 44.4659 628.859C63.1914 610.133 88.5886 599.613 115.07 599.613Z" fill="#0078D4"/>
            <path d="M304.883 1009.2C331.415 952.656 374.248 905.336 427.879 873.321C487.296 839.307 554.949 822.355 623.384 824.332C686.751 822.957 749.277 839.023 804.133 870.774C855.77 901.531 897.356 946.63 923.833 1000.59C952.678 1060.06 967.051 1125.51 965.781 1191.6C967.168 1260.63 952.365 1329.02 922.56 1391.3C895.506 1447.17 852.666 1493.89 799.339 1525.68C742.332 1558.44 677.432 1574.95 611.699 1573.39C546.941 1574.94 483 1558.69 426.83 1526.43C374.781 1495.62 332.705 1450.48 305.632 1396.39C276.59 1337.8 262.025 1273.09 263.16 1207.7C261.904 1139.23 276.168 1071.37 304.883 1009.2ZM435.969 1328.15C450.103 1363.9 474.075 1394.91 505.107 1417.59C536.73 1439.72 574.611 1451.14 613.197 1450.17C654.302 1451.77 694.814 1439.97 728.628 1416.54C759.315 1393.87 782.676 1362.7 795.818 1326.88C810.554 1286.97 817.817 1244.69 817.242 1202.16C817.699 1159.22 810.86 1116.52 797.017 1075.87C784.802 1039.3 762.275 1007.04 732.148 982.984C699.226 958.378 658.833 945.866 617.766 947.553C578.34 946.556 539.611 958.068 507.13 980.437C475.488 1003.16 450.963 1034.41 436.418 1070.55C404.243 1153.39 404.056 1245.25 435.894 1328.23L435.969 1328.15Z" fill="white"/>
            <circle cx="1264" cy="1361" r="50" fill="#D9D9D9"/>
        </symbol>
        <symbol id="gmail" viewBox="0 0 20 20" >
            <path d="M18.7412 17.3219H1.255C0.571875 17.3219 0 16.7812 0 16.0831V3.985C0.000661585 3.65247 0.133137 3.33377 0.368387 3.09875C0.603638 2.86373 0.922471 2.73158 1.255 2.73125H18.7412C19.4244 2.73125 19.9962 3.29375 19.9962 3.98625V16.0675C19.9806 16.7825 19.4244 17.3219 18.7412 17.3219Z" fill="#F2F2F2"/>
            <path opacity="0.1" d="M2.5 17.3219L9.98125 11.8469L10.0287 11.5294L2.3125 5.98625L2.29688 17.0519L2.5 17.3219Z" fill="#221F1F"/>
            <path d="M1.25494 17.3219C0.562439 17.3219 -6.10352e-05 16.7813 -6.10352e-05 16.0831V3.96875C-6.10352e-05 3.27 0.562439 3.14375 1.25494 3.14375C1.94744 3.14375 2.50994 3.2875 2.50994 3.96875V17.3213L1.25494 17.3219Z" fill="#D44C3D"/>
            <path d="M1.255 3.33375C2.14438 3.33375 2.31938 3.60375 2.31938 3.96875V17.1463H1.255C0.667503 17.1463 0.190628 16.67 0.190628 16.0819V3.96875C0.175003 3.59375 0.365628 3.33375 1.255 3.33375ZM1.255 3.15875C0.562503 3.15938 3.46488e-06 3.30188 3.46488e-06 3.96875V16.0663C-0.00235341 16.2317 0.0284983 16.396 0.0907334 16.5493C0.152969 16.7026 0.245323 16.8419 0.362333 16.9589C0.479344 17.0759 0.618633 17.1683 0.771961 17.2305C0.92529 17.2928 1.08954 17.3236 1.255 17.3213H2.51V3.96875C2.5 3.28625 1.95375 3.15875 1.255 3.15875ZM18.7413 3.33375C19.5513 3.33375 19.8056 3.4925 19.8056 3.9375V16.0988C19.8056 16.6863 19.3294 17.1631 18.7413 17.1631H17.6769V3.9375C17.6613 3.47688 17.9313 3.33375 18.7413 3.33375ZM18.7413 3.15875C18.0425 3.15875 17.4863 3.25375 17.4863 3.93688V17.3369H18.7413C19.44 17.3369 19.9963 16.7744 19.9963 16.0819V3.92125C19.9806 3.23813 19.4244 3.15875 18.7413 3.15875Z" fill="#D44C3D"/>
            <path d="M18.7413 17.3219H17.4863V3.9375C17.4863 3.23875 18.0488 3.15938 18.7413 3.15938C19.4338 3.15938 19.9963 3.25438 19.9963 3.9375V16.0988C19.9892 16.4265 19.8537 16.7383 19.619 16.9671C19.3843 17.1958 19.069 17.3233 18.7413 17.3219Z" fill="#D44C3D"/>
            <path opacity="0.08" d="M13.2775 17.1781L0 4.35625L0.69875 4.64187L9.94875 11.2963L19.8844 4V15.955C19.8837 16.1189 19.8507 16.281 19.7872 16.432C19.7237 16.5831 19.631 16.7201 19.5143 16.8352C19.3977 16.9503 19.2595 17.0413 19.1076 17.1028C18.9558 17.1643 18.7932 17.1952 18.6294 17.1938L13.2775 17.1781Z" fill="#221F1F"/>
            <path d="M9.97561 11.8625L0.540608 5.0175C-0.0218918 4.605 -0.174392 3.81125 0.238733 3.255C0.651858 2.69875 1.44498 2.57187 2.01748 2.985L9.99061 8.78187L18.0112 2.90625C18.5737 2.49375 19.3456 2.62062 19.7581 3.19187C20.1706 3.75437 20.0437 4.52625 19.4725 4.93875L9.97561 11.8625Z" fill="#D44C3D"/>
            <path d="M18.7417 2.85774C19.0754 2.85774 19.4085 3.01649 19.6154 3.30274C19.9492 3.77899 19.8529 4.44649 19.3779 4.80274L9.97542 11.6409L0.651669 4.87524C0.175419 4.52524 0.0479192 3.84211 0.375419 3.37524C0.566044 3.08961 0.900419 2.91461 1.26479 2.91461C1.50229 2.91461 1.72542 2.97836 1.89979 3.12086L9.85604 8.90211L9.96729 8.96586L10.0785 8.90211L18.091 3.03149C18.2973 2.92024 18.5035 2.85649 18.7423 2.85649L18.7417 2.85774ZM18.7417 2.66711C18.4873 2.66711 18.2167 2.73086 18.0104 2.90461L9.99042 8.78149L2.00167 2.96899C1.79542 2.81024 1.52542 2.73149 1.25542 2.73149C0.858544 2.74711 0.461669 2.92211 0.222919 3.25649C-0.173956 3.81899 -0.0145808 4.59086 0.540419 5.00336L9.97542 11.8627L19.4723 4.93774C19.7394 4.74217 19.9191 4.44949 19.9725 4.12274C20.0259 3.79599 19.9489 3.46133 19.7579 3.19086C19.5035 2.85711 19.1229 2.66586 18.7417 2.66586V2.66711Z" fill="#D44C3D"/>
        </symbol>
        <symbol id="learn" viewBox="0 0 16 16" >
            <path d="M7.9375 2.89996L7.9375 15.5" stroke="#B8BEC1" stroke-width="1.5" stroke-miterlimit="10"/>
            <path d="M11.6521 1C9.6215 1 7.93758 1.8 7.93758 2.9C7.93758 1.8 6.25367 1 4.22306 1C2.19246 1 0.508545 1.8 0.508545 2.9L0.508545 15.5C0.508545 14.35 2.19246 13.5 4.22306 13.5C6.25367 13.5 7.93758 14.35 7.93758 15.5C7.93758 14.35 9.6215 13.5 11.6521 13.5C13.6827 13.5 15.3666 14.35 15.3666 15.5L15.3666 2.9C15.3666 1.8 13.6827 1 11.6521 1Z" stroke="#B8BEC1" stroke-width="1.5" stroke-miterlimit="10" stroke-linecap="square"/>
        </symbol>
        <symbol id="leisure" viewBox="0 0 18 17" >
            <path d="M9.12728 -4.41139e-08C10.6433 0.000219939 12.1311 0.413605 13.4337 1.19653C14.7364 1.97945 15.8055 3.10286 16.5283 4.44821C17.251 5.79356 17.6006 7.31094 17.5402 8.84021C17.4797 10.3695 17.0115 11.8539 16.1848 13.1368C16.1211 13.2355 16.034 13.3166 15.9314 13.3728C15.8288 13.4289 15.7139 13.4583 15.5972 13.4583L2.65745 13.4583C2.54074 13.4583 2.42589 13.4289 2.32328 13.3728C2.22068 13.3166 2.13356 13.2355 2.06983 13.1368C1.24318 11.8539 0.774918 10.3695 0.714467 8.84023C0.654015 7.31097 1.00362 5.7936 1.72637 4.44825C2.44913 3.10291 3.51823 1.97949 4.82084 1.19656C6.12346 0.413632 7.61128 0.000235861 9.12728 -4.41139e-08V-4.41139e-08ZM3.04939 12.0417L15.2052 12.0417C15.7028 11.173 16.0108 10.207 16.1085 9.20833L14.7403 9.20833L14.7403 7.79167L16.1085 7.79167C16.033 7.03067 15.8349 6.28724 15.522 5.5907L14.3393 6.28008L13.6376 5.05325L14.8186 4.3651C14.3755 3.74547 13.8368 3.20163 13.2231 2.75435L12.5412 3.94666L11.3259 3.23832L12.0091 2.04425C11.3191 1.72837 10.5827 1.52835 9.82891 1.45208L9.82891 2.83333L8.42565 2.83333L8.42565 1.45208C7.67185 1.52832 6.93545 1.72831 6.2455 2.04416L6.92836 3.23823L5.71314 3.94657L5.0315 2.75435C4.41773 3.20163 3.87904 3.74547 3.43599 4.3651L4.61702 5.05352L3.91538 6.28035L2.73261 5.59096C2.41975 6.28741 2.22162 7.03076 2.14604 7.79167L3.51423 7.79167L3.51423 9.20833L2.14604 9.20833C2.24378 10.207 2.55177 11.173 3.04939 12.0417V12.0417Z"/>
            <path d="M7.62381 5.30219L8.70747 7.12614C9.19485 7.02553 9.70178 7.10213 10.1386 7.34241C10.5754 7.58269 10.9141 7.97116 11.0946 8.43915C11.2751 8.90714 11.2859 9.42449 11.125 9.89974C10.9642 10.375 10.6421 10.7775 10.2157 11.0361C9.78922 11.2948 9.28594 11.3928 8.7948 11.313C8.30366 11.2332 7.85629 10.9806 7.53179 10.6C7.2073 10.2193 7.02658 9.73507 7.02159 9.23288C7.0166 8.73068 7.18766 8.24288 7.50453 7.85573L6.42051 6.03106L7.62381 5.30219ZM9.12705 9.91662C9.26582 9.91662 9.40147 9.87508 9.51685 9.79725C9.63224 9.71941 9.72217 9.60879 9.77527 9.47936C9.82838 9.34993 9.84227 9.2075 9.8152 9.0701C9.78813 8.9327 9.7213 8.80648 9.62318 8.70742C9.52505 8.60836 9.40003 8.5409 9.26393 8.51357C9.12783 8.48624 8.98675 8.50026 8.85855 8.55388C8.73034 8.60749 8.62076 8.69828 8.54367 8.81476C8.46657 8.93125 8.42542 9.06819 8.42542 9.20829C8.42563 9.39609 8.49962 9.57613 8.63115 9.70892C8.76269 9.84172 8.94103 9.91641 9.12705 9.91662V9.91662Z"/>
        </symbol>
        <symbol id="work" viewBox="0 0 32 32" >
            <rect fill="none" height="24" stroke-linejoin="round" stroke-miterlimit="10" stroke-width="2" width="30" x="1" y="7"/>
            <path d="M31,7H1v6   c0,2.209,1.791,4,4,4h22c2.209,0,4-1.791,4-4V7z" fill="none" stroke-linejoin="round" stroke-miterlimit="10" stroke-width="2"/>
            <path d="M8,7V3   c0-1.105,0.895-2,2-2h12c1.105,0,2,0.895,2,2v4" fill="none" stroke-linejoin="round" stroke-miterlimit="10" stroke-width="2"/>
            <path d="M16,21L16,21   c-1.105,0-2-0.895-2-2v-4c0-1.105,0.895-2,2-2h0c1.105,0,2,0.895,2,2v4C18,20.105,17.105,21,16,21z" fill="none" stroke-linejoin="round" stroke-miterlimit="10" stroke-width="2"/>
            <line fill="none" stroke-linejoin="round" stroke-miterlimit="10" stroke-width="2" x1="18" x2="14" y1="17" y2="17"/>
        </symbol>
        <symbol id="user" viewBox="0 0 21 20" >
            <path d="M20.8925 18.7995C19.3999 16.2288 17.0096 14.3007 14.1812 13.3859C15.5362 12.5797 16.589 11.351 17.178 9.88843C17.767 8.42589 17.8595 6.81044 17.4415 5.29021C17.0234 3.76997 16.1178 2.42901 14.8638 1.47331C13.6098 0.517603 12.0767 0 10.5 0C8.92331 0 7.39022 0.517603 6.13621 1.47331C4.88219 2.42901 3.9766 3.76997 3.55852 5.29021C3.14045 6.81044 3.23301 8.42589 3.82199 9.88843C4.41097 11.351 5.4638 12.5797 6.81877 13.3859C3.99046 14.3006 1.60016 16.2287 0.107536 18.7993C0.0549275 18.8902 0.0207446 18.9906 0.00693846 19.0948C-0.00686768 19.1989 -2.65955e-05 19.3047 0.0270711 19.4062C0.0541688 19.5077 0.100992 19.6029 0.164869 19.6863C0.228745 19.7697 0.308422 19.8397 0.399352 19.8923C0.490282 19.9449 0.590684 19.9791 0.694824 19.9929C0.798965 20.0067 0.904805 19.9999 1.0063 19.9728C1.1078 19.9457 1.20296 19.8989 1.28637 19.835C1.36977 19.7711 1.43977 19.6914 1.49238 19.6005C2.40556 18.0197 3.71869 16.707 5.29985 15.7944C6.881 14.8818 8.67448 14.4014 10.5001 14.4014C12.3257 14.4014 14.1192 14.8819 15.7003 15.7945C17.2815 16.7072 18.5946 18.0199 19.5077 19.6007C19.5603 19.6916 19.6303 19.7713 19.7137 19.8352C19.7971 19.899 19.8923 19.9458 19.9938 19.9729C20.0953 20 20.2011 20.0069 20.3052 19.9931C20.4094 19.9793 20.5098 19.9451 20.6007 19.8925C20.6916 19.8399 20.7713 19.7698 20.8352 19.6865C20.899 19.6031 20.9458 19.5079 20.9729 19.4064C21 19.3049 21.0069 19.1991 20.9931 19.0949C20.9792 18.9908 20.9451 18.8904 20.8925 18.7995ZM4.90059 7.20227C4.90059 6.09482 5.22898 5.01225 5.84425 4.09144C6.45951 3.17064 7.33402 2.45296 8.35716 2.02916C9.38031 1.60536 10.5062 1.49447 11.5923 1.71052C12.6785 1.92657 13.6762 2.45986 14.4593 3.24294C15.2424 4.02602 15.7757 5.02373 15.9917 6.10989C16.2078 7.19606 16.0969 8.3219 15.6731 9.34504C15.2493 10.3682 14.5316 11.2427 13.6108 11.8579C12.69 12.4732 11.6074 12.8016 10.4999 12.8016C9.01542 12.7999 7.59219 12.2094 6.54247 11.1597C5.49276 10.11 4.90228 8.68678 4.90059 7.20227V7.20227Z"/>
        </symbol>
        <symbol id="capricorn" viewBox="0 0 64 64" >
            <circle cx="32" cy="32" r="30" fill="#428bc1"></circle><path d="M48 37.4V37c-.4-3.7-3.2-6.1-7-6.3c-2.2-.1-4.1.9-5.4 2.5c-1.3-4.4-2.6-8.7-4-13c-1.5-4.6-7.2-5.1-9.9-2.2c-1-1.2-2.5-1.9-4.2-1.9c-1.9-.1-1.9 2.9 0 2.9c1.4 0 2.6 1 2.7 2.5v21.3c0 1.9 2.9 1.9 2.9 0V21.6c.6-3.3 4.1-3.3 5.5-1.2c.5.8.7 2.1 1 3c.6 2.2 1.3 4.3 2 6.5c.8 2.5 1.6 5.1 2.4 7.6c-.1.3-.1.7-.1.8c-.2.9-.5 1.7-.8 2.6c-.9 2.3-2.6 4.2-5.2 4.2c-1.9.1-1.9 3 0 2.9c3.9-.1 6.5-2.8 7.9-6.2c1.4 1.4 3.3 2.2 5.3 2.3c3.7.2 6.6-2.9 7-6.3c-.1-.1-.1-.2-.1-.4zm-11.1.1v-.2c-.1-4.9 7.9-4.8 8.2.1c-.3 5-7.8 5-8.2.1z" fill="#ffffff" stroke="#ffffff" stroke-miterlimit="10"></path>        </symbol>
        <symbol id="pisces" viewBox="0 0 64 64" >
            <circle cx="32" cy="32" r="30" fill="#428bc1"></circle><path d="M45.3 45.9c-4.2-3.2-6.5-7.7-7-12.3h6.2c2 0 2-3.1 0-3.1h-6.2c.4-4.6 2.7-9.1 7-12.3c1.6-1.2 0-3.9-1.6-2.7c-5.2 3.9-8 9.4-8.4 15h-6.2c-.4-5.7-3.4-11.3-8.8-15.2c-1.6-1.2-3.2 1.5-1.6 2.7c4.4 3.2 6.8 7.8 7.3 12.5h-6.4c-2 0-2 3.1 0 3.1H26c-.4 4.7-2.8 9.3-7.2 12.5c-1.6 1.2 0 3.8 1.6 2.7c5.4-3.9 8.3-9.5 8.7-15.2h6.2c.4 5.6 3.2 11 8.5 15c1.5 1.1 3.1-1.6 1.5-2.7z" fill="#ffffff" stroke="#ffffff" stroke-miterlimit="10"></path>
        </symbol>
        <symbol id="sagittarius" viewBox="0 0 64 64" >
            <g id="SVGRepo_bgCarrier" stroke-width="0"/>
            <g id="SVGRepo_tracerCarrier" stroke-linecap="round" stroke-linejoin="round"/>
            <g id="SVGRepo_iconCarrier">
                <circle cx="32" cy="32" r="30" fill="#428bc1"/>
                <path d="M48 17.4s0 0 0 0c-.1-.8-.6-1.4-1.4-1.4H32c-1.9 0-1.9 2.9 0 2.9h11L24.7 37.2L18.5 31c-1.3-1.3-3.4.7-2.1 2.1l6.2 6.2l-6.2 6.2c-.4.5-.5 1.1-.2 1.5c.2.5.6.8 1.2.9h.4c.1 0 .1 0 .2-.1c.1 0 .1-.1.2-.1c.1-.1.2-.1.2-.2l6.2-6.2l6.2 6.2c1.3 1.3 3.4-.7 2.1-2.1l-6.2-6.2c6.2-6 12.3-12.1 18.4-18.2v11c0 1.9 2.9 1.9 2.9 0V17.4z" fill="#ffffff" stroke="#ffffff" stroke-miterlimit="10"/>
            </g>
        </symbol>
        <symbol id="scorpio" viewBox="0 0 64 64" >
            <g id="SVGRepo_bgCarrier" stroke-width="0"/>
            <g id="SVGRepo_tracerCarrier" stroke-linecap="round" stroke-linejoin="round"/>
            <g id="SVGRepo_iconCarrier">
                <circle fill="#428bc1" cx="32" cy="32" r="30"/>
                <path fill="#ffffff" d="M49.128 42.91a2.066 2.066 0 0 0-.266-.43l-1.283-1.302c-1.197-1.205-2.396-2.41-3.594-3.621c-.411-.413-.911-.632-1.446-.632c-.854 0-1.693.582-2.041 1.416c-.325.78-.151 1.617.464 2.237l1.027 1.034c-1.096-.33-1.612-.997-1.674-2.082V20.506c0-.243-.044-.442-.064-.505c-.393-3.406-2.941-5.821-6.344-6.008c-1.623-.091-3.157.529-4.353 1.729c-1.133-1.042-2.586-1.637-4.236-1.729c-1.625-.096-3.146.524-4.341 1.715c-1.156-1.063-2.655-1.668-4.322-1.717c-1.313 0-2.015 1.035-2.03 2.058c-.016 1.071.689 2.178 2.069 2.219c1.21.031 2.121.967 2.163 2.238l.008 23.459c0 2.735 4.274 2.733 4.274 0l-.004-23.454c.089-1.482 1.147-2.146 2.157-2.146c1.018 0 2.079.67 2.158 2.141v23.459c0 2.734 4.273 2.734 4.273 0l-.001-23.433c.079-1.497 1.142-2.167 2.159-2.167s2.08.67 2.158 2.141v19.025c0 .188.025.373.066.512c.399 3.368 2.79 5.695 6.117 5.983l-1.267 1.305c-.609.626-.776 1.466-.446 2.248c.349.828 1.183 1.405 2.026 1.405c.539 0 1.041-.224 1.451-.646l4.797-4.936l.021-.03l.002.001a2.01 2.01 0 0 0 .305-.46a2.081 2.081 0 0 0 .017-2.003"/>
            </g>
        </symbol>
        <symbol id="libra" viewBox="0 0 64 64" >
            <g id="SVGRepo_bgCarrier" stroke-width="0"/>
            <g id="SVGRepo_tracerCarrier" stroke-linecap="round" stroke-linejoin="round"/>
            <g id="SVGRepo_iconCarrier"> <circle cx="32" cy="32" r="30" fill="#428bc1"> </circle> <g fill="#ffffff" stroke="#ffffff" stroke-miterlimit="10"> <path d="M47.6 43.5H16.5c-1.9 0-1.9 3 0 3h31.1c1.9 0 1.9-3 0-3z"> </path> <path d="M16.4 39.1h12c.8 0 1.5-.7 1.5-1.5v-.1c0-.5-.3-1.1-.7-1.3c-8.5-4-6.7-18.8 2.9-18.8c4.3 0 7 3.5 8.1 7.2c1.3 4.6-1.4 9.3-5.3 11.3c-.4.2-.7.8-.7 1.3v.2c0 .8.7 1.5 1.5 1.5h12c1.9 0 1.9-3 0-3h-8.2c1.2-1.2 2.3-2.7 2.5-3.1c1.2-2.2 1.6-5.2 1.2-7.7c-1-6.1-5-10.8-11.1-10.8c-5.6 0-9.9 4.6-11.4 9.5c-.7 2.5-.5 5.6.5 8c.6 1.3 1.2 2.7 2.2 3.7c0 0 .2.2.4.5h-7.4c-1.9.1-1.9 3.1 0 3.1z"> </path> </g> </g>
        </symbol>
        <symbol id="virgo" viewBox="0 0 64 64" >
            <g id="SVGRepo_bgCarrier" stroke-width="0"/>
            <g id="SVGRepo_tracerCarrier" stroke-linecap="round" stroke-linejoin="round"/>
            <g id="SVGRepo_iconCarrier">
                <circle fill="#428bc1" cx="32" cy="32" r="30"/>
                <path fill="#ffffff" stroke="#ffffff" stroke-miterlimit="10" d="M44.13 45.05c-1.4-1.076-2.914-3.112-3.215-5.04c3.275-4.105 5.716-9.195 4.947-14.506c-.09-.629-.814-1.188-1.396-1.134c-1.356.124-2.588.538-3.617 1.214v-3.93c0-.162-.025-.306-.06-.441c-.349-3-2.514-5.04-5.39-5.198c-1.627-.089-3.037.69-4.02 1.898c-.978-1.114-2.363-1.809-3.982-1.898c-1.621-.089-3.02.685-4 1.884a5.506 5.506 0 0 0-3.989-1.884c-1.869-.053-1.865 3.036 0 3.089c1.35.038 2.494 1.045 2.549 2.524c0 .009-.004.018-.004.026l.006 21.948c.002 1.991 2.9 1.991 2.898 0l-.005-21.862c.001-.029.007-.055.005-.086l-.001-.014c.194-3.301 4.923-3.295 5.097.014v21.948c0 1.991 2.898 1.991 2.898 0V21.654c.174-3.316 4.928-3.316 5.102 0v8.898a1.739 1.739 0 0 0 0 .368v8.05a38.165 38.165 0 0 1-3.576 3.543c-1.444 1.267.618 3.438 2.05 2.185a38.31 38.31 0 0 0 2.245-2.141c.855 2.069 2.368 3.913 3.998 5.165c1.52 1.17 2.963-1.512 1.463-2.665zm-1.08-17.262c.84 3.449-1.473 5.797-2.201 7.104v-4.343c.154-1.454 1.074-2.322 2.201-2.761z"/>
            </g>
        </symbol>
        <symbol id="leo" viewBox="0 0 64 64" >
            <g id="SVGRepo_bgCarrier" stroke-width="0"/>
            <g id="SVGRepo_tracerCarrier" stroke-linecap="round" stroke-linejoin="round"/>
            <g id="SVGRepo_iconCarrier">
                <circle cx="32" cy="32" r="30" fill="#428bc1"/>
                <path d="M43 40.2c-.2.8-.4 1.5-.7 2.3c-.3.7-.6 1.4-1 2c-1.2 2.1-4.6 1.3-4.6-1c.1-3.3 2.7-6.6 4.1-9.5c2.6-5.5 5.2-14.6-1.3-18.9c-4.8-3.2-11.2-1.6-14 3.2c-2.3 4-.4 9.4 1.5 14.2c-3.1-.8-6.4.7-8.1 3.2c-2.2 3.2-.6 7.4 2.6 9.3c3.3 2 7.5.6 9.6-2.2l.3-.3c.1-.1.1-.2.2-.4c.8-1.7.9-3.4.4-5c0-.1 0-.2-.1-.3c-1.7-5.6-9.8-20.6 1.9-20.6c7.2 0 7 5.8 6.2 10.3c-.8 4.1-3 8-5 11.7c-2.1 4-2.6 9.6 2.9 10.9c4.7 1.1 7.2-5 7.9-8.3c.6-1.7-2.4-2.5-2.8-.6zm-21.3-3c2.5-4.5 9.6-.5 7.1 3.9c-2.9 4.2-9.5.5-7.1-3.9z" fill="#ffffff" stroke="#ffffff" stroke-miterlimit="10"/>
            </g>
        </symbol>
        <symbol id="cancer" viewBox="0 0 64 64" >
            <g id="SVGRepo_bgCarrier" stroke-width="0"/>
            <g id="SVGRepo_tracerCarrier" stroke-linecap="round" stroke-linejoin="round"/>
            <g id="SVGRepo_iconCarrier"> <circle cx="32" cy="32" r="30" fill="#428bc1"> </circle> <g fill="#ffffff" stroke="#ffffff" stroke-miterlimit="10"> <path d="M28.3 32.1c2.1-3.5.6-8.1-2.6-10.3c-.3-.2-.6-.4-.9-.5c5.1-2.1 10.9-1.9 16 .6c1.7.8 3.2-1.7 1.5-2.5c-8.2-4-17.4-3-24.5 2.8c-.2.1-.3.3-.4.4c-.5.5-1 1-1.4 1.6c-.1.1-.2.2-.2.3c-.1.1-.1.2-.2.4c-1.6 3.6-.6 7.6 2.8 9.9c3.5 2.4 8 .6 9.9-2.7zm-9.9-6c3.1-5.1 9.8-.4 7.4 4.6c-1.1 2.2-3.7 2.8-5.8 1.7c-2.2-1.3-2.6-4.3-1.6-6.3z"> </path> <path d="M48.3 39c1.6-3.6.6-7.6-2.8-9.9c-3.4-2.3-7.8-.5-9.8 2.7c-2.1 3.5-.6 8.1 2.6 10.3c.3.2.6.4.9.5c-5.1 2.1-10.9 1.9-16-.6c-1.7-.8-3.2 1.7-1.5 2.5c8.2 4 17.4 3 24.5-2.8c.2-.1.3-.3.4-.4c.5-.5 1-1 1.4-1.6c.1-.1.2-.2.2-.3c0-.1 0-.2.1-.4zm-10.1-5.7c1.1-2.2 3.7-2.8 5.8-1.7c2.2 1.2 2.6 4.2 1.6 6.3c-3.1 5.2-9.8.5-7.4-4.6z"> </path> </g> </g>
        </symbol>
        <symbol id="gemini" viewBox="0 0 64 64" >
            <g id="SVGRepo_bgCarrier" stroke-width="0"/>
            <g id="SVGRepo_tracerCarrier" stroke-linecap="round" stroke-linejoin="round"/>
            <g id="SVGRepo_iconCarrier">
                <circle cx="32" cy="32" r="30" fill="#428bc1"/>
                <path d="M50 46c-4.1-1.1-8.3-1.9-12.5-2.2V20.2c4.2-.3 8.4-1.1 12.5-2.2c1.8-.5 1.1-3.4-.8-2.9c-11.2 3.1-23.1 3.1-34.3 0c-1.9-.5-2.7 2.4-.9 2.9c4 1.1 8.2 1.8 12.3 2.2v23.6c-4.2.3-8.3 1.1-12.3 2.2c-1.8.5-1.1 3.4.8 2.9c11.2-3.1 23.1-3.1 34.3 0c1.9.6 2.7-2.4.9-2.9zm-20.7-2.4V20.4c1.7.1 3.5.1 5.2 0v23.2c-1.7-.1-3.4-.1-5.2 0z" fill="#ffffff" stroke="#ffffff" stroke-miterlimit="10"/>
            </g>
        </symbol>
        <symbol id="taurus" viewBox="0 0 64 64" >
            <g id="SVGRepo_bgCarrier" stroke-width="0"/>
            <g id="SVGRepo_tracerCarrier" stroke-linecap="round" stroke-linejoin="round"/>
            <g id="SVGRepo_iconCarrier">
                <circle cx="32" cy="32" r="30" fill="#428bc1"/>
                <path d="M46.6 17c-2.3 0-5 .4-6.8 1.9c-2.6 2.1-4.1 6.8-7.8 7.1c-3.7-.3-5.2-4.9-7.8-7.1c-1.8-1.5-4.5-1.8-6.8-1.9c-1.9 0-1.9 3 0 3c3.8 0 5.9 1.7 8 4.8c.6.9 1.3 1.7 1.9 2.3c-3.3 1.8-5.4 5.6-5.6 9.4c-.3 5.9 4.9 10.2 10.2 10.5c5.6.3 9.7-4.7 10.2-10c0-.1.1-.3 0-.4v-.4c-.3-4-2.5-7.2-5.7-8.8c.8-.7 1.4-1.5 2.1-2.5c2.1-3.1 4.2-4.7 8-4.8c2-.1 2-3.1.1-3.1zm-7.3 19.5c-.5 9.7-14.1 9.7-14.6 0c-.6-9.7 14.1-9.6 14.6 0z" fill="#ffffff" stroke="#ffffff" stroke-miterlimit="10"/>
            </g>
        </symbol>
        <symbol id="aries" viewBox="0 0 64 64" >
            <g id="SVGRepo_bgCarrier" stroke-width="0"/>
            <g id="SVGRepo_tracerCarrier" stroke-linecap="round" stroke-linejoin="round"/>
            <g id="SVGRepo_iconCarrier">
                <circle cx="32" cy="32" r="30" fill="#428bc1"/>
                <path d="M44.3 17c-4.3-.2-6.8 3.2-7.9 7.1c-1.5 5.3-2.9 10.6-4.4 15.9c-1.5-5.3-2.9-10.5-4.4-15.8c-1.1-3.9-3.6-7.4-7.9-7.1c-3.9.2-6.5 3.8-6.7 7.5c-.1 2 2.8 1.9 2.9 0c.1-2.6 1.9-4.4 4.4-4.5c2.6-.1 3.9 2.9 4.4 4.9c1.9 7 3.9 14 5.8 20.9c.4 1.5 2.4 1.5 2.8 0c1.9-7 3.9-14 5.8-20.9c.7-2.3 1.8-4.8 4.5-4.9c2.5-.2 4.3 2.2 4.4 4.5c.1 1.9 3 2 2.9 0c-.1-3.8-2.7-7.4-6.6-7.6z" fill="#ffffff" stroke="#ffffff" stroke-miterlimit="10"/>
            </g>
        </symbol>
        <symbol id="aquarius" viewBox="0 0 64 64" >
            <circle cx="32" cy="32" r="30" fill="#428bc1">
            </circle>
            <g fill="#ffffff" stroke="#ffffff" stroke-miterlimit="10">
                <path d="M48.8 18.2c-3.2 2.4-6.3 4.8-9.5 7.2v-5.9c0-1.1-1.3-2-2.2-1.3c-3.2 2.4-6.3 4.8-9.5 7.2v-5.9c0-1.1-1.3-2-2.2-1.3c-3.9 2.9-7.8 5.9-11.7 8.8c-1.5 1.1-.1 3.8 1.5 2.6c3.2-2.4 6.3-4.8 9.5-7.2v5.9c0 1.1 1.3 2 2.2 1.3c3.2-2.4 6.3-4.8 9.5-7.2v5.9c0 1.1 1.3 2 2.2 1.3c3.2-2.4 6.3-4.8 9.5-7.2v5.9c0 2 2.9 2 2.9 0v-8.8c0-1-1.3-2-2.2-1.3z">
                </path>
                <path d="M48.8 34.2c-3.2 2.4-6.3 4.8-9.5 7.2v-5.9c0-1.1-1.3-2-2.2-1.3c-3.2 2.4-6.3 4.8-9.5 7.2v-5.9c0-1.1-1.3-2-2.2-1.3c-3.9 2.9-7.8 5.9-11.7 8.8c-1.5 1.1-.1 3.8 1.5 2.6c3.2-2.4 6.3-4.8 9.5-7.2v5.9c0 1.1 1.3 2 2.2 1.3c3.2-2.4 6.3-4.8 9.5-7.2v5.9c0 1.1 1.3 2 2.2 1.3c3.2-2.4 6.3-4.8 9.5-7.2v5.9c0 2 2.9 2 2.9 0v-8.8c0-1-1.3-2-2.2-1.3z">
                </path>
            </g>
        </symbol>
        <symbol id="star" viewBox="0 0 24 24" >
            <path fill-rule="evenodd" d="M11.4434703,19.4783366 L7.11534027,21.8561884 C6.53071469,22.1773786 5.80762087,21.9424899 5.50026501,21.3315498 C5.3778743,21.0882703 5.3356403,20.8096129 5.38010133,20.5387172 L6.2067006,15.5023462 C6.27323987,15.0969303 6.14461904,14.6832584 5.86275418,14.3961413 L2.36122346,10.8293635 C1.88825143,10.3475782 1.87857357,9.55633639 2.33960735,9.06207547 C2.52319342,8.86525818 2.76374635,8.73717345 3.02402575,8.69765029 L7.8630222,7.96285367 C8.25254987,7.90370429 8.58928356,7.64804097 8.76348563,7.27918144 L10.9275506,2.69693973 C11.2198634,2.07798981 11.936976,1.82386417 12.5292664,2.12933421 C12.7651196,2.25097399 12.9560234,2.45047063 13.0724239,2.69693973 L15.2364889,7.27918144 C15.410691,7.64804097 15.7474247,7.90370429 16.1369524,7.96285367 L20.9759488,8.69765029 C21.6295801,8.79690353 22.0824579,9.43108706 21.9874797,10.1141388 C21.9496589,10.3861337 21.827091,10.6375141 21.6387511,10.8293635 L18.1372204,14.3961413 C17.8553555,14.6832584 17.7267347,15.0969303 17.793274,15.5023462 L18.6198732,20.5387172 C18.7315268,21.219009 18.2943081,21.8650816 17.6433179,21.9817608 C17.3840902,22.028223 17.1174353,21.984088 16.8846343,21.8561884 L12.5565043,19.4783366 C12.2081001,19.2869252 11.7918744,19.2869252 11.4434703,19.4783366 Z"/>
        </symbol>
        <symbol id="telegram_back" viewBox="0 0 544 172" >
            <rect width="544" height="172" rx="20" fill="url(#paint0_linear)"/><path d="M515 20c0-11.046-8.954-20-20-20H366.318C372 102.5 314.387 120.689 263.5 172H495c11.046 0 20-8.954 20-20V20z" fill="url(#paint1_linear)"/><path d="M544 20c0-11.046-8.954-20-20-20H395.318c-.722 83.179-15.431 120.689-66.318 172h195c11.046 0 20-8.954 20-20V20z" fill="url(#paint2_linear)"/><defs><linearGradient id="paint0_linear" x1="71.79" y1="139.33" x2="507.746" y2="135.243" gradientUnits="userSpaceOnUse"><stop stop-color="#397CD5"/><stop offset="1" stop-color="#01D0FE"/></linearGradient><linearGradient id="paint1_linear" x1="486.627" y1="139.33" x2="314.316" y2="138.691" gradientUnits="userSpaceOnUse"><stop stop-color="#397CD5"/><stop offset="1" stop-color="#01D0FE"/></linearGradient><linearGradient id="paint2_linear" x1="515.627" y1="139.33" x2="343.316" y2="138.691" gradientUnits="userSpaceOnUse"><stop stop-color="#28A7E8"/><stop offset="1" stop-color="#01D0FE"/></linearGradient></defs>        </symbol>
        <symbol id="ukraine" viewBox="0 0 64 64" >
            <path d="M32 62c16.6 0 30-13.4 30-30H2c0 16.6 13.4 30 30 30z" fill="#ffe62e"></path><path d="M32 2C15.4 2 2 15.4 2 32h60C62 15.4 48.6 2 32 2z" fill="#428bc1"></path>
        </symbol>
        <symbol id="poland" viewBox="0 0 64 64" >
            <path d="M32 2c16.6 0 30 13.4 30 30H2C2 15.4 15.4 2 32 2z" fill="#f9f9f9"></path><path d="M32 62C15.4 62 2 48.6 2 32h60c0 16.6-13.4 30-30 30" fill="#ed4c5c"></path>
        </symbol>
        <symbol id="uk" viewBox="0 0 64 64" >
            <g id="SVGRepo_bgCarrier" stroke-width="0"></g><g id="SVGRepo_tracerCarrier" stroke-linecap="round" stroke-linejoin="round"></g><g id="SVGRepo_iconCarrier"> <g fill="#2a5f9e"> <path d="M22 60.3V46.5l-10.3 7.6c2.9 2.7 6.4 4.8 10.3 6.2"> </path> <path d="M42 60.3c3.9-1.4 7.4-3.5 10.3-6.2L42 46.4v13.9"> </path> <path d="M3.7 42c.3 1 .7 1.9 1.2 2.9L8.8 42H3.7"> </path> <path d="M55.2 42l3.9 2.9c.4-.9.8-1.9 1.2-2.9h-5.1"> </path> </g> <g fill="#ffffff"> <path d="M23.5 38H2.6c.3 1.4.7 2.7 1.1 4h5.1l-3.9 2.9c.8 1.7 1.7 3.2 2.8 4.7L18 42h4v2l-11.7 8.6l1.4 1.4L22 46.5v13.8c1.3.5 2.6.8 4 1.1V38h-2.5"> </path> <path d="M61.4 38H38v23.4c1.4-.3 2.7-.7 4-1.1V46.5L52.3 54c1.4-1.3 2.6-2.7 3.8-4.2L45.4 42h6.8l6.1 4.5c.3-.5.6-1.1.8-1.6L55.2 42h5.1c.4-1.3.8-2.6 1.1-4"> </path> </g> <g fill="#ed4c5c"> <path d="M7.7 49.6c.8 1.1 1.6 2.1 2.5 3.1L22 44.1v-2h-4L7.7 49.6"> </path> <path d="M45.5 42l10.7 7.8c.4-.5.7-1 1.1-1.5c.1-.1.1-.2.2-.2c.3-.5.7-1.1 1-1.6L52.2 42h-6.7"> </path> </g> <g fill="#2a5f9e"> <path d="M42 3.7v13.8l10.3-7.6C49.4 7.2 45.9 5.1 42 3.7"> </path> <path d="M22 3.7c-3.9 1.4-7.4 3.5-10.3 6.2L22 17.6V3.7"> </path> <path d="M60.3 22c-.3-1-.7-1.9-1.2-2.9L55.2 22h5.1"> </path> <path d="M8.8 22l-3.9-2.9c-.4 1-.8 1.9-1.2 2.9h5.1"> </path> </g> <g fill="#ffffff"> <path d="M40.5 26h20.8c-.3-1.4-.7-2.7-1.1-4h-5.1l3.9-2.9c-.8-1.7-1.7-3.2-2.8-4.7L46 22h-4v-2l11.7-8.6l-1.4-1.4L42 17.5V3.7c-1.3-.5-2.6-.8-4-1.1V26h2.5"> </path> <path d="M2.6 26H26V2.6c-1.4.3-2.7.7-4 1.1v13.8L11.7 10c-1.4 1.3-2.6 2.7-3.8 4.2L18.6 22h-6.8l-6.1-4.5c-.3.5-.6 1.1-.8 1.6L8.8 22H3.7c-.4 1.3-.8 2.6-1.1 4"> </path> </g> <g fill="#ed4c5c"> <path d="M56.3 14.4c-.8-1.1-1.6-2.1-2.5-3.1L42 19.9v2h4l10.3-7.5"> </path> <path d="M18.5 22L7.9 14.2c-.4.5-.7 1-1.1 1.5c-.1.1-.1.2-.2.2c-.3.5-.7 1.1-1 1.6l6.1 4.5h6.8"> </path> <path d="M61.4 26H38V2.6c-1.9-.4-3.9-.6-6-.6s-4.1.2-6 .6V26H2.6c-.4 1.9-.6 3.9-.6 6s.2 4.1.6 6H26v23.4c1.9.4 3.9.6 6 .6s4.1-.2 6-.6V38h23.4c.4-1.9.6-3.9.6-6s-.2-4.1-.6-6"> </path> </g> </g>
        </symbol>
        <symbol id="edit__context" viewBox="0 0 1024 1024" >
            <path d="M832 512a32 32 0 1164 0v352a32 32 0 01-32 32H160a32 32 0 01-32-32V160a32 32 0 0132-32h352a32 32 0 010 64H192v640h640V512z"/><path d="M469.952 554.24l52.8-7.552L847.104 222.4a32 32 0 10-45.248-45.248L477.44 501.44l-7.552 52.8zm422.4-422.4a96 96 0 010 135.808l-331.84 331.84a32 32 0 01-18.112 9.088L436.8 623.68a32 32 0 01-36.224-36.224l15.104-105.6a32 32 0 019.024-18.112l331.904-331.84a96 96 0 01135.744 0z"/>
        </symbol>
        <symbol id="england" viewBox="0 0 512 512" >
            <circle style="fill:#F0F0F0;" cx="256" cy="256" r="256"/>
            <path style="fill:#D80027;" d="M509.833,222.609h-220.44h-0.001V2.167C278.461,0.744,267.317,0,256,0s-22.461,0.744-33.391,2.167
	v220.44v0.001H2.167C0.744,233.539,0,244.681,0,256c0,11.319,0.744,22.461,2.167,33.391h220.44h0.001v220.442
	C233.539,511.256,244.683,512,256,512s22.461-0.743,33.391-2.167v-220.44v-0.001h220.442C511.256,278.461,512,267.319,512,256
	C512,244.681,511.256,233.539,509.833,222.609z"/>
        </symbol>
        <symbol id="ukraine_map" viewBox="0 0 32 32" >
            <polygon fill="#406AB5" points="17,8 21,7 21,9 23,11 25,11 26,11 26,12 30,13 29,15 30,17 29,17 28,19 23,22 24,24 26,23 25,25    21,27 21,26 19,25 19,24 20,22 18,22 17,24 16,23 14,25 13,25 12,24 13,22 15,20 11,16 8,17 7,18 3,18 2,16 4,15 4,13 6,12 5,9    8,8 13,10 14,9 15,11  "/>

            <polygon fill="#FCDF65" points="29,17 23,22 24,24 26,23 25,25 21,27 21,26 19,25 19,24 20,22 18,22 17,24 16,23 14,25 13,25    12,24 13,22 15,20 14,19 12,17  "/>

            <path d="M30.1181641,15l0.7763672-1.5527344c0.1357422-0.2714844,0.140625-0.5893555,0.0141602-0.8652344   c-0.1269531-0.2753906-0.3720703-0.4785156-0.6660156-0.5522461L27,11.2192383V11c0-0.5522461-0.4477539-1-1-1h-2.5859375   L22,8.5859375V7c0-0.3081055-0.1420898-0.5986328-0.3847656-0.7880859   c-0.2431641-0.1899414-0.5605469-0.2583008-0.8579102-0.1821289l-4,1   c-0.2412109,0.0605469-0.4511719,0.2084961-0.5893555,0.4155273l-1.0439453,1.5664063l-0.2294922-0.4589844   c-0.144043-0.2875977-0.4169922-0.4882813-0.734375-0.5400391c-0.3144531-0.0488281-0.6401367,0.0537109-0.8671875,0.2802734   l-0.5336914,0.5336914L8.371582,7.0712891C8.152832,6.9838867,7.909668,6.9770508,7.6835938,7.0512695l-3,1   C4.159668,8.2260742,3.8764648,8.7924805,4.0512695,9.3164063l0.7255859,2.1772461l-1.2241211,0.6118164   C3.2138672,12.2749023,3,12.6210938,3,13v1.3818359l-1.4472656,0.7236328   c-0.4941406,0.2470703-0.6943359,0.8476563-0.4472656,1.3417969l1,2C2.2749023,18.7861328,2.6210938,19,3,19h4   c0.2651367,0,0.5195313-0.1054688,0.7070313-0.2929688l0.8330078-0.8330078l2.1899414-0.7299805L13.5859375,20   l-1.2929688,1.2929688c-0.0761719,0.0756836-0.1391602,0.1635742-0.1875,0.2597656l-1,2   c-0.1923828,0.3852539-0.1166992,0.8500977,0.1875,1.1542969l1,1C12.4804688,25.8945313,12.7348633,26,13,26h1   c0.2651367,0,0.5195313-0.1054688,0.7070313-0.2929688L16,24.4140625l0.2929688,0.2929688   c0.2270508,0.2265625,0.5483398,0.3286133,0.8671875,0.2802734c0.3173828-0.0517578,0.590332-0.2524414,0.734375-0.5400391   L18,24.2358398V25c0,0.3789063,0.2138672,0.7250977,0.5527344,0.8945313L20,26.6181641V27   c0,0.3466797,0.1796875,0.668457,0.4741211,0.8505859C20.6347656,27.949707,20.8173828,28,21,28   c0.152832,0,0.3061523-0.0351563,0.4472656-0.1054688l4-2c0.1933594-0.0966797,0.3505859-0.2539063,0.4472656-0.4472656l1-2   c0.1923828-0.3852539,0.1166992-0.8500977-0.1875-1.1542969c-0.3032227-0.3037109-0.7685547-0.3793945-1.1542969-0.1875   l-1.1054688,0.5527344l-0.1386719-0.2773438l4.2060547-2.5234375c0.1630859-0.0976563,0.2949219-0.2402344,0.3798828-0.4101563   L29.6181641,18H30c0.3466797,0,0.668457-0.1796875,0.8505859-0.4741211   c0.1821289-0.2949219,0.1987305-0.6630859,0.0439453-0.9731445L30.1181641,15z M28.1054688,14.5527344   c-0.140625,0.2817383-0.140625,0.612793,0,0.8945313l0.3554688,0.7104492   c-0.1494141,0.0957031-0.2729492,0.2304688-0.3554688,0.3950195l-0.8696289,1.7397461l-4.7504883,2.8500977   c-0.4477539,0.2685547-0.6132813,0.8374023-0.3798828,1.3046875l1,2c0.0537109,0.1074219,0.1240234,0.2006836,0.206543,0.2788086   l-1.4697266,0.7348633c-0.0957031-0.1494141-0.2304688-0.2729492-0.3950195-0.3554688L20,24.3818359v-0.1459961   l0.8945313-1.7885742c0.1547852-0.3100586,0.1381836-0.6782227-0.0439453-0.9731445C20.668457,21.1796875,20.3466797,21,20,21h-2   c-0.3789063,0-0.7250977,0.2138672-0.8945313,0.5527344l-0.3793945,0.7592773l-0.019043-0.019043   c-0.390625-0.390625-1.0234375-0.390625-1.4140625,0L13.5859375,24h-0.171875l-0.1972656-0.1972656l0.6049805-1.2104492   l1.8852539-1.8852539c0.390625-0.390625,0.390625-1.0234375,0-1.4140625l-4-4   c-0.2680664-0.269043-0.6640625-0.3623047-1.0234375-0.2416992l-3,1c-0.1469727,0.0493164-0.2807617,0.1318359-0.390625,0.2416992   L6.5859375,17H3.6181641l-0.2763672-0.5527344l1.1054688-0.5527344C4.7861328,15.7250977,5,15.3789063,5,15v-1.3818359   l1.4472656-0.7236328c0.4448242-0.2226563,0.6586914-0.7387695,0.5014648-1.2109375L6.2651367,9.6323242L7.96875,9.0644531   l4.659668,1.8642578c0.3720703,0.1479492,0.7963867,0.0620117,1.0786133-0.2216797l0.019043-0.019043l0.3793945,0.7592773   c0.159668,0.3188477,0.4765625,0.5288086,0.8325195,0.5507813c0.3510742,0.0263672,0.6962891-0.1469727,0.894043-0.4433594   l1.7856445-2.6782227L20,8.2807617V9c0,0.2651367,0.1054688,0.5195313,0.2929688,0.7070313l2,2   C22.4804688,11.8945313,22.7348633,12,23,12h2c0,0.4589844,0.3125,0.8588867,0.7573242,0.9702148l2.7905273,0.6977539   L28.1054688,14.5527344z" fill="#4D4D4D"/>
        </symbol>
        <symbol id="github" viewBox="0 0 501 501" >
            <path fill-rule="evenodd" clip-rule="evenodd" d="M250.861 72.4112C150.061 72.4112 68.3608 154.111 68.3608 254.911C68.3608 335.511 120.661 403.911 193.161 428.111C202.261 429.811 205.661 424.111 205.661 419.311C205.661 414.911 205.461 400.611 205.461 385.311C154.661 396.311 143.961 363.811 143.961 363.811C135.661 342.711 123.661 337.111 123.661 337.111C107.061 325.811 124.861 326.011 124.861 326.011C143.161 327.311 152.861 344.811 152.861 344.811C169.161 372.711 195.561 364.611 205.961 360.011C207.561 348.211 212.361 340.211 217.561 335.611C177.061 331.011 134.361 315.311 134.361 245.411C134.361 225.511 141.461 209.211 153.161 196.411C151.261 191.811 145.061 173.211 154.961 148.111C154.961 148.111 170.261 143.211 205.161 166.811C219.761 162.811 235.361 160.711 250.861 160.711C266.361 160.811 281.961 162.811 296.561 166.811C331.361 143.211 346.661 148.111 346.661 148.111C356.561 173.211 350.361 191.811 348.461 196.411C360.161 209.211 367.261 225.511 367.261 245.411C367.261 315.511 324.561 330.911 283.961 335.411C290.461 341.111 296.361 352.211 296.361 369.211C296.361 393.611 296.161 413.311 296.161 419.311C296.161 424.211 299.461 429.811 308.661 428.111C381.161 403.911 433.361 335.611 433.361 254.911C433.361 154.111 351.661 72.4112 250.861 72.4112Z"/>
            <path d="M137.461 334.411C137.061 335.311 135.661 335.611 134.361 335.011C133.061 334.411 132.261 333.211 132.761 332.311C133.161 331.411 134.561 331.111 135.861 331.711C137.161 332.311 137.961 333.511 137.461 334.411Z"/>
            <path d="M144.861 342.711C143.961 343.511 142.261 343.111 141.161 341.911C139.961 340.611 139.761 338.911 140.661 338.111C141.561 337.311 143.161 337.711 144.361 338.911C145.561 340.211 145.761 341.911 144.861 342.711Z"/>
            <path d="M152.061 353.211C150.961 354.011 149.161 353.311 147.961 351.611C146.861 350.011 146.861 348.011 147.961 347.211C149.061 346.411 150.861 347.111 152.061 348.711C153.261 350.411 153.261 352.411 152.061 353.211Z"/>
            <path d="M161.961 363.311C160.961 364.411 158.861 364.111 157.261 362.611C155.661 361.111 155.261 359.011 156.261 357.911C157.261 356.811 159.461 357.111 160.961 358.611C162.561 360.211 162.961 362.311 161.961 363.311Z"/>
            <path d="M175.561 369.211C175.161 370.611 173.061 371.311 170.961 370.711C168.861 370.111 167.561 368.411 167.961 367.011C168.361 365.611 170.461 364.911 172.561 365.511C174.561 366.111 175.961 367.811 175.561 369.211Z"/>
            <path d="M190.461 370.311C190.561 371.811 188.761 373.111 186.561 373.111C184.361 373.211 182.661 371.911 182.561 370.411C182.561 368.911 184.261 367.611 186.461 367.611C188.661 367.611 190.461 368.811 190.461 370.311Z"/>
            <path d="M204.361 368.011C204.661 369.511 203.161 371.011 200.961 371.411C198.861 371.811 196.861 370.911 196.661 369.411C196.361 367.911 197.961 366.411 200.061 366.011C202.161 365.611 204.061 366.511 204.361 368.011Z"/>
        </symbol>
    </defs>
</svg>
