<svg width="60" height="69" viewBox="0 0 60 69" fill="none" xmlns="http://www.w3.org/2000/svg">
<g clip-path="url(#clip0_10_475)">
<g opacity="0.3">
<path d="M7.49579 7.56007L1.27096 40.7355C0.514014 44.7696 2.88973 48.7112 6.57726 49.5393L36.9023 56.3493C40.5898 57.1774 44.1928 54.5783 44.9497 50.5442L51.1745 17.3688C51.9315 13.3346 49.5558 9.39302 45.8682 8.56493L15.5432 1.755C11.8557 0.926906 8.25273 3.52593 7.49579 7.56007Z" fill="#6997FF"/>
</g>
<g opacity="0.3">
<path d="M43.3028 9.88057L13.139 17.499C9.47101 18.4254 7.18403 22.4294 8.03085 26.4421L14.9947 59.4412C15.8415 63.4539 19.5015 65.9559 23.1694 65.0294L53.3333 57.411C57.0012 56.4846 59.2882 52.4807 58.4414 48.4679L51.4775 15.4688C50.6307 11.4561 46.9708 8.95416 43.3028 9.88057Z" fill="#6997FF"/>
</g>
<path d="M45.1606 9.17226H14.2033C10.4389 9.17226 7.38721 12.5108 7.38721 16.629V50.4962C7.38721 54.6144 10.4389 57.9529 14.2033 57.9529H45.1606C48.925 57.9529 51.9767 54.6144 51.9767 50.4962V16.629C51.9767 12.5108 48.925 9.17226 45.1606 9.17226Z" fill="#577BCB"/>
<path d="M30.2368 47.6036C27.885 47.6043 25.5746 46.9267 23.5385 45.6392C21.5024 44.3516 19.8126 42.4996 18.6393 40.2699C17.466 38.0401 16.8507 35.5114 16.8555 32.9385C16.8603 30.3657 17.485 27.8397 18.6665 25.6152C19.8481 23.3907 21.5449 21.5463 23.5857 20.2678C25.6266 18.9893 27.9395 18.322 30.2912 18.3332C32.643 18.3443 34.9505 19.0335 36.9812 20.3313C39.0118 21.629 40.6939 23.4895 41.8579 25.7251C42.0497 26.1022 42.161 26.522 42.1833 26.953C42.2056 27.3839 42.1383 27.8147 41.9865 28.2131C41.8347 28.6115 41.6023 28.967 41.3068 29.253C41.0113 29.5391 40.6604 29.7481 40.2805 29.8644C39.7262 30.0398 39.1342 30.0077 38.5985 29.7733C38.0627 29.5388 37.6138 29.1154 37.323 28.5702C36.4445 26.8807 35.0849 25.5519 33.4516 24.7867C31.8183 24.0215 30.0011 23.8618 28.2771 24.3321C26.5531 24.8024 25.0171 25.8767 23.9034 27.3912C22.7897 28.9058 22.1595 30.7773 22.1089 32.7203C22.0583 34.6632 22.5902 36.571 23.6233 38.1524C24.6564 39.7338 26.134 40.902 27.8307 41.4789C29.5274 42.0557 31.3501 42.0094 33.0205 41.3472C34.691 40.6849 36.1175 39.4429 37.0824 37.8108C37.4039 37.2922 37.8749 36.9063 38.4202 36.7147C38.9656 36.5232 39.5539 36.537 40.0912 36.7539C40.4631 36.8935 40.8012 37.1234 41.0803 37.4263C41.3594 37.7293 41.5721 38.0974 41.7026 38.5031C41.8331 38.9088 41.878 39.3416 41.8339 39.7689C41.7897 40.1963 41.6577 40.6072 41.4477 40.9708C40.2289 43.0073 38.5659 44.6799 36.6088 45.8378C34.6516 46.9957 32.4618 47.6026 30.2368 47.6036Z" fill="#F7F7F8"/>
</g>
<defs>
<clipPath id="clip0_10_475">
<rect width="60" height="69" fill="white"/>
</clipPath>
</defs>
</svg>
