<svg width="24" height="26" viewBox="0 0 24 26" fill="none" xmlns="http://www.w3.org/2000/svg">
<path fill-rule="evenodd" clip-rule="evenodd" d="M16.1117 13.8459H13.2321C12.7042 13.8459 12.2723 14.3203 12.2723 14.9002V18.063C12.2723 18.6429 12.7042 19.1173 13.2321 19.1173H16.1117C16.6397 19.1173 17.0716 18.6429 17.0716 18.063V14.9002C17.0716 14.3203 16.6397 13.8459 16.1117 13.8459ZM16.1117 3.30298V4.35727H8.43285V3.30298C8.43285 2.72312 8.00091 2.24869 7.47299 2.24869C6.94506 2.24869 6.51313 2.72312 6.51313 3.30298V4.35727H5.55327C4.48782 4.35727 3.64314 5.30613 3.64314 6.46585L3.63354 21.2259C3.63354 22.3856 4.48782 23.3345 5.55327 23.3345H18.9913C20.0472 23.3345 20.911 22.3856 20.911 21.2259V6.46585C20.911 5.30613 20.0472 4.35727 18.9913 4.35727H18.0314V3.30298C18.0314 2.72312 17.5995 2.24869 17.0716 2.24869C16.5437 2.24869 16.1117 2.72312 16.1117 3.30298ZM18.0315 21.2259H6.51313C5.9852 21.2259 5.55327 20.7515 5.55327 20.1716V9.62872H18.9913V20.1716C18.9913 20.7515 18.5594 21.2259 18.0315 21.2259Z" fill="#5787A4"/>
</svg>
