<svg width="16" height="16" viewBox="0 0 16 16" fill="none" xmlns="http://www.w3.org/2000/svg">
<g clip-path="url(#clip0_23_493)">
<path d="M7.9375 2.89996L7.9375 15.5" stroke="#B8BEC1" stroke-width="1.5" stroke-miterlimit="10"/>
<path d="M11.6521 1C9.6215 1 7.93758 1.8 7.93758 2.9C7.93758 1.8 6.25367 1 4.22306 1C2.19246 1 0.508545 1.8 0.508545 2.9L0.508545 15.5C0.508545 14.35 2.19246 13.5 4.22306 13.5C6.25367 13.5 7.93758 14.35 7.93758 15.5C7.93758 14.35 9.6215 13.5 11.6521 13.5C13.6827 13.5 15.3666 14.35 15.3666 15.5L15.3666 2.9C15.3666 1.8 13.6827 1 11.6521 1Z" stroke="#B8BEC1" stroke-width="1.5" stroke-miterlimit="10" stroke-linecap="square"/>
</g>
<defs>
<clipPath id="clip0_23_493">
<rect width="15.8486" height="16" fill="white" transform="translate(0.0131836)"/>
</clipPath>
</defs>
</svg>
