<svg aria-hidden="true" style="position: absolute; width: 0px; height: 0px; overflow: hidden;" version="1.1" xmlns="http://www.w3.org/2000/svg" xmlns:xlink="http://www.w3.org/1999/xlink">
    <defs>
        <symbol id="add" viewBox="0 0 24 24">
            <path d="M12 6C12.5523 6 13 6.44772 13 7V11H17C17.5523 11 18 11.4477 18 12C18 12.5523 17.5523 13 17 13H13V17C13 17.5523 12.5523 18 12 18C11.4477 18 11 17.5523 11 17V13H7C6.44772 13 6 12.5523 6 12C6 11.4477 6.44772 11 7 11H11V7C11 6.44772 11.4477 6 12 6Z"/>
            <path fill-rule="evenodd" clip-rule="evenodd" d="M2 4.5C2 3.11929 3.11929 2 4.5 2H19.5C20.8807 2 22 3.11929 22 4.5V19.5C22 20.8807 20.8807 22 19.5 22H4.5C3.11929 22 2 20.8807 2 19.5V4.5ZM4.5 4C4.22386 4 4 4.22386 4 4.5V19.5C4 19.7761 4.22386 20 4.5 20H19.5C19.7761 20 20 19.7761 20 19.5V4.5C20 4.22386 19.7761 4 19.5 4H4.5Z"/>
        </symbol>
        <symbol id="info" viewBox="0 0 16 16" >
            <path d="M8 7a.75.75 0 01.75.75v3.5a.75.75 0 01-1.5 0v-3.5A.75.75 0 018 7zM8 4a1 1 0 000 2h.007a1 1 0 000-2H8z"/>
            <path fill-rule="evenodd" d="M0 8a8 8 0 1116 0A8 8 0 010 8zm8-6.5a6.5 6.5 0 100 13 6.5 6.5 0 000-13z" clip-rule="evenodd"/>
        </symbol>
        <symbol id="apple" viewBox="0 0 24 24" >
            <path d="M17.5703 7.07026C17.4713 7.128 15.1152 8.3465 15.1152 11.0482C15.2262 14.1293 18.0885 15.2098 18.1376 15.2098C18.0885 15.2675 17.7054 16.6817 16.5708 18.1642C15.6704 19.4412 14.671 20.7286 13.1533 20.7286C11.7097 20.7286 11.1915 19.8776 9.52582 19.8776C7.737 19.8776 7.23086 20.7286 5.86128 20.7286C4.34365 20.7286 3.27019 19.3722 2.32067 18.1072C1.08708 16.4515 0.0385784 13.8533 0.00156286 11.3586C-0.0233824 10.0366 0.248601 8.73716 0.939021 7.6334C1.9135 6.09247 3.65322 5.04644 5.55309 5.01195C7.00876 4.96621 8.30431 5.94325 9.19268 5.94325C10.044 5.94325 11.6357 5.01195 13.4366 5.01195C14.2139 5.0127 16.2868 5.2309 17.5703 7.07026ZM9.06956 4.748C8.81045 3.54076 9.52582 2.33351 10.1921 1.56342C11.0435 0.632117 12.3881 0 13.5476 0C13.6217 1.20725 13.1525 2.39125 12.3141 3.25357C11.5617 4.18487 10.2661 4.88597 9.06956 4.748Z"/>
        </symbol>
        <symbol id="google" viewBox="0 0 20 20" >
            <path d="M18.1713 8.36791H17.5001V8.33333H10.0001V11.6667H14.7097C14.0226 13.6071 12.1763 15 10.0001 15C7.23883 15 5.00008 12.7612 5.00008 10C5.00008 7.23875 7.23883 5 10.0001 5C11.2747 5 12.4342 5.48083 13.3172 6.26625L15.6742 3.90916C14.1859 2.52208 12.1951 1.66666 10.0001 1.66666C5.398 1.66666 1.66675 5.39791 1.66675 10C1.66675 14.6021 5.398 18.3333 10.0001 18.3333C14.6022 18.3333 18.3334 14.6021 18.3334 10C18.3334 9.44125 18.2759 8.89583 18.1713 8.36791Z" fill="#FFC107"/>
            <path d="M2.62744 6.12125L5.36536 8.12916C6.10619 6.295 7.90036 5 9.99994 5C11.2745 5 12.4341 5.48083 13.317 6.26625L15.6741 3.90916C14.1858 2.52208 12.1949 1.66666 9.99994 1.66666C6.79911 1.66666 4.02327 3.47375 2.62744 6.12125Z" fill="#FF3D00"/>
            <path d="M10 18.3333C12.1525 18.3333 14.1084 17.5096 15.5871 16.17L13.008 13.9875C12.1432 14.6452 11.0865 15.0008 10 15C7.83255 15 5.99213 13.6179 5.2988 11.6892L2.5813 13.7829C3.96047 16.4817 6.7613 18.3333 10 18.3333Z" fill="#4CAF50"/>
            <path d="M18.1713 8.36791H17.5V8.33333H10V11.6667H14.7096C14.3809 12.5902 13.7889 13.3972 13.0067 13.9879L13.0079 13.9871L15.5871 16.1696C15.4046 16.3354 18.3333 14.1667 18.3333 9.99999C18.3333 9.44124 18.2758 8.89583 18.1713 8.36791Z" fill="#1976D2"/>
        </symbol>
        <symbol id="calendar" viewBox="0 0 24 26" >
            <path fill-rule="evenodd" clip-rule="evenodd" d="M16.1117 13.8459H13.2321C12.7042 13.8459 12.2723 14.3203 12.2723 14.9002V18.063C12.2723 18.6429 12.7042 19.1173 13.2321 19.1173H16.1117C16.6397 19.1173 17.0716 18.6429 17.0716 18.063V14.9002C17.0716 14.3203 16.6397 13.8459 16.1117 13.8459ZM16.1117 3.30298V4.35727H8.43285V3.30298C8.43285 2.72312 8.00091 2.24869 7.47299 2.24869C6.94506 2.24869 6.51313 2.72312 6.51313 3.30298V4.35727H5.55327C4.48782 4.35727 3.64314 5.30613 3.64314 6.46585L3.63354 21.2259C3.63354 22.3856 4.48782 23.3345 5.55327 23.3345H18.9913C20.0472 23.3345 20.911 22.3856 20.911 21.2259V6.46585C20.911 5.30613 20.0472 4.35727 18.9913 4.35727H18.0314V3.30298C18.0314 2.72312 17.5995 2.24869 17.0716 2.24869C16.5437 2.24869 16.1117 2.72312 16.1117 3.30298ZM18.0315 21.2259H6.51313C5.9852 21.2259 5.55327 20.7515 5.55327 20.1716V9.62872H18.9913V20.1716C18.9913 20.7515 18.5594 21.2259 18.0315 21.2259Z"/>
        </symbol>
        <symbol id="cancel" viewBox="0 0 20 20" >
            <path d="M12.2421 10.0006L16.0521 13.8106C16.2996 14.0581 16.2996 14.46 16.0521 14.7075L14.7077 16.0519C14.4602 16.2994 14.0589 16.2994 13.8108 16.0519L10.0002 12.2419L6.18957 16.0519C5.94207 16.2994 5.54082 16.2994 5.29332 16.0519L3.94832 14.7075C3.70082 14.46 3.70082 14.0587 3.94832 13.8106L7.75895 10.0006L3.94832 6.19C3.70082 5.9425 3.70082 5.54062 3.94832 5.29312L5.29395 3.94875C5.54145 3.70125 5.9427 3.70125 6.1902 3.94875L10.0002 7.75937L13.8108 3.94875C14.0583 3.70125 14.4596 3.70125 14.7077 3.94875L16.0521 5.29375C16.2996 5.54125 16.2996 5.9425 16.0521 6.19062L12.2421 10.0006Z"/>
        </symbol>
        <symbol id="photograph" viewBox="0 0 27 27" >
            <path d="M13.3333 14.4C13.3333 16.0542 11.838 17.4 10 17.4C8.162 17.4 6.66667 16.0542 6.66667 14.4C6.66667 12.7458 8.162 11.4 10 11.4C11.838 11.4 13.3333 12.7458 13.3333 14.4ZM2 11.4H4V10.2H2V11.4ZM14.6667 14.4C14.6667 16.716 12.5733 18.6 10 18.6C7.42667 18.6 5.33333 16.716 5.33333 14.4C5.33333 12.084 7.42667 10.2 10 10.2C12.5733 10.2 14.6667 12.084 14.6667 14.4ZM14 14.4C14 12.4116 12.2093 10.8 10 10.8C7.79067 10.8 6 12.4116 6 14.4C6 16.3884 7.79067 18 10 18C12.2093 18 14 16.3884 14 14.4ZM20 10.2V19.2C20 20.1942 19.1047 21 18 21H2C0.895333 21 0 20.1942 0 19.2V10.2C0 9.2058 0.895333 8.4 2 8.4H5.33333L6.114 6.9948C6.45267 6.3852 7.14533 6 7.90267 6H12.0973C12.8547 6 13.5473 6.3852 13.886 6.9948L14.6667 8.4H18C19.1047 8.4 20 9.2058 20 10.2ZM4.66667 11.4V10.2C4.66667 9.8688 4.368 9.6 4 9.6H2C1.632 9.6 1.33333 9.8688 1.33333 10.2V11.4C1.33333 11.7312 1.632 12 2 12H4C4.368 12 4.66667 11.7312 4.66667 11.4ZM15.3333 14.4C15.3333 11.7492 12.9453 9.6 10 9.6C7.05467 9.6 4.66667 11.7492 4.66667 14.4C4.66667 17.0508 7.05467 19.2 10 19.2C12.9453 19.2 15.3333 17.0508 15.3333 14.4Z"/>
        </symbol>
        <symbol id="pencil" viewBox="0 0 12 12" >
            <path d="M10.7362 1.66701L9.95825 0.889021C9.43959 0.370367 8.59868 0.370347 8.07999 0.889021L0.766646 8.20234L0.503366 10.5719C0.468129 10.8891 0.736203 11.1571 1.05338 11.1219L3.42292 10.8586L10.7363 3.54527C11.2549 3.0266 11.2549 2.18567 10.7362 1.66701ZM8.76073 4.58162L4.11107 9.23128V8.51026H3.11498V7.51416H2.39395L7.04361 2.8645L8.76073 4.58162ZM3.11803 10.2243L1.89377 10.3604L1.26488 9.73147L1.40091 8.50721L1.8129 8.09522H2.53392V9.09131H3.53002V9.81234L3.11803 10.2243ZM10.2667 3.0757L9.23029 4.11207L7.51317 2.39495L8.54954 1.35858C8.80904 1.09907 9.22913 1.09903 9.48867 1.35858L10.2667 2.13657C10.5262 2.39609 10.5262 2.81613 10.2667 3.0757Z"/>
        </symbol>
        <symbol id="edit" viewBox="0 0 25 25" >
            <path d="M10.7362 1.66701L9.95825 0.889021C9.43959 0.370367 8.59868 0.370347 8.07999 0.889021L0.766646 8.20234L0.503366 10.5719C0.468129 10.8891 0.736203 11.1571 1.05338 11.1219L3.42292 10.8586L10.7363 3.54527C11.2549 3.0266 11.2549 2.18567 10.7362 1.66701ZM8.76073 4.58162L4.11107 9.23128V8.51026H3.11498V7.51416H2.39395L7.04361 2.8645L8.76073 4.58162ZM3.11803 10.2243L1.89377 10.3604L1.26488 9.73147L1.40091 8.50721L1.8129 8.09522H2.53392V9.09131H3.53002V9.81234L3.11803 10.2243ZM10.2667 3.0757L9.23029 4.11207L7.51317 2.39495L8.54954 1.35858C8.80904 1.09907 9.22913 1.09903 9.48867 1.35858L10.2667 2.13657C10.5262 2.39609 10.5262 2.81613 10.2667 3.0757Z"/>
        </symbol>
        <symbol id="exit" viewBox="0 0 14 16" >
            <path d="M1.3125 2H4.92188C5.10234 2 5.25 2.16875 5.25 2.375V2.625C5.25 2.83125 5.10234 3 4.92188 3H1.3125C1.07187 3 0.875 3.225 0.875 3.5V12.5C0.875 12.775 1.07187 13 1.3125 13H4.92188C5.10234 13 5.25 13.1687 5.25 13.375V13.625C5.25 13.8313 5.10234 14 4.92188 14H1.3125C0.587891 14 0 13.3281 0 12.5V3.5C0 2.67188 0.587891 2 1.3125 2ZM8.94141 2.60938L8.74727 2.83125C8.61875 2.97812 8.61875 3.21562 8.74727 3.3625L12.3566 7.46875H4.70312C4.52266 7.46875 4.375 7.6375 4.375 7.84375V8.15625C4.375 8.3625 4.52266 8.53125 4.70312 8.53125H12.3566L8.75 12.6375C8.62148 12.7844 8.62148 13.0219 8.75 13.1687L8.94414 13.3906C9.07266 13.5375 9.28047 13.5375 9.40898 13.3906L13.907 8.26562C14.0355 8.11875 14.0355 7.88125 13.907 7.73438L9.40625 2.60938C9.27773 2.4625 9.06992 2.4625 8.94141 2.60938Z"/>
        </symbol>
        <symbol id="fly" viewBox="0 0 16 16" >
            <path d="M14.5 0.134377L0.499985 8.20938C-0.218765 8.625 -0.14689 9.68438 0.618735 10L4.99998 11.8125V15C4.99998 15.9438 6.18123 16.3531 6.77186 15.6344L8.66873 13.3281L12.6187 14.9594C13.2156 15.2063 13.8906 14.8281 13.9875 14.1875L15.9875 1.15313C16.1156 0.318752 15.2187 -0.281248 14.5 0.134377ZM5.99998 15V12.225L7.70311 12.9281L5.99998 15ZM13 14.0344L6.55623 11.3719L12.7906 4.00313C12.9406 3.82813 12.7 3.59063 12.525 3.74063L4.54686 10.5406L0.999985 9.07813L15 1L13 14.0344Z"/>
        </symbol>
        <symbol id="trash" viewBox="0 0 12 14" >
            <path d="M7.92857 11.8125H8.35714C8.41397 11.8125 8.46848 11.7895 8.50867 11.7484C8.54885 11.7074 8.57143 11.6518 8.57143 11.5938V4.15625C8.57143 4.09823 8.54885 4.04259 8.50867 4.00157C8.46848 3.96055 8.41397 3.9375 8.35714 3.9375H7.92857C7.87174 3.9375 7.81723 3.96055 7.77705 4.00157C7.73686 4.04259 7.71429 4.09823 7.71429 4.15625V11.5938C7.71429 11.6518 7.73686 11.7074 7.77705 11.7484C7.81723 11.7895 7.87174 11.8125 7.92857 11.8125ZM3.64286 11.8125H4.07143C4.12826 11.8125 4.18277 11.7895 4.22295 11.7484C4.26314 11.7074 4.28571 11.6518 4.28571 11.5938V4.15625C4.28571 4.09823 4.26314 4.04259 4.22295 4.00157C4.18277 3.96055 4.12826 3.9375 4.07143 3.9375H3.64286C3.58602 3.9375 3.53152 3.96055 3.49133 4.00157C3.45115 4.04259 3.42857 4.09823 3.42857 4.15625V11.5938C3.42857 11.6518 3.45115 11.7074 3.49133 11.7484C3.53152 11.7895 3.58602 11.8125 3.64286 11.8125ZM11.7857 1.75H9L8.1 0.525C7.98024 0.361993 7.82495 0.229688 7.64642 0.138564C7.46789 0.0474404 7.27103 0 7.07143 0L4.92857 0C4.72897 0 4.53211 0.0474404 4.35358 0.138564C4.17505 0.229688 4.01976 0.361993 3.9 0.525L3 1.75H0.214286C0.157454 1.75 0.102949 1.77305 0.0627628 1.81407C0.0225765 1.85509 0 1.91073 0 1.96875L0 2.40625C0 2.46427 0.0225765 2.51991 0.0627628 2.56093C0.102949 2.60195 0.157454 2.625 0.214286 2.625H0.857143V12.6875C0.857143 13.0356 0.992602 13.3694 1.23372 13.6156C1.47484 13.8617 1.80186 14 2.14286 14H9.85714C10.1981 14 10.5252 13.8617 10.7663 13.6156C11.0074 13.3694 11.1429 13.0356 11.1429 12.6875V2.625H11.7857C11.8425 2.625 11.8971 2.60195 11.9372 2.56093C11.9774 2.51991 12 2.46427 12 2.40625V1.96875C12 1.91073 11.9774 1.85509 11.9372 1.81407C11.8971 1.77305 11.8425 1.75 11.7857 1.75ZM4.58571 1.05C4.62578 0.995821 4.67757 0.951833 4.73705 0.921475C4.79653 0.891117 4.86207 0.875211 4.92857 0.875H7.07143C7.13793 0.875211 7.20347 0.891117 7.26295 0.921475C7.32243 0.951833 7.37422 0.995821 7.41429 1.05L7.92857 1.75H4.07143L4.58571 1.05ZM10.2857 12.6875C10.2857 12.8035 10.2406 12.9148 10.1602 12.9969C10.0798 13.0789 9.97081 13.125 9.85714 13.125H2.14286C2.02919 13.125 1.92018 13.0789 1.83981 12.9969C1.75944 12.9148 1.71429 12.8035 1.71429 12.6875V2.625H10.2857V12.6875ZM5.78571 11.8125H6.21429C6.27112 11.8125 6.32562 11.7895 6.36581 11.7484C6.406 11.7074 6.42857 11.6518 6.42857 11.5938V4.15625C6.42857 4.09823 6.406 4.04259 6.36581 4.00157C6.32562 3.96055 6.27112 3.9375 6.21429 3.9375H5.78571C5.72888 3.9375 5.67438 3.96055 5.63419 4.00157C5.59401 4.04259 5.57143 4.09823 5.57143 4.15625V11.5938C5.57143 11.6518 5.59401 11.7074 5.63419 11.7484C5.67438 11.7895 5.72888 11.8125 5.78571 11.8125Z"/>
        </symbol>
        <symbol id="yahoo" viewBox="0 0 2501 1798" >
            <path d="M928.078 0.157642C1453.72 0.157642 1855.28 389.095 1855.28 898.47C1855.28 1407.85 1453.72 1796.93 928.078 1796.93C402.44 1796.93 0.877625 1407.83 0.877625 898.47C0.877625 389.095 402.44 0.145142 928.078 0.145142V0.157642Z" fill="#6B0094"/>
            <path d="M888.253 590.42C890.378 559.245 892.653 528.233 897.065 497.208H191.703V590.42C262.553 594.82 331.44 601.52 402.453 605.92C535.49 767.858 668.528 929.795 803.853 1093.86V1344.58C728.44 1351.27 653.028 1355.67 577.603 1362.37V1444.32H1274.15V1362.37C1198.73 1357.81 1123.32 1355.68 1047.9 1353.41C1050.18 1264.76 1052.3 1173.83 1054.59 1085.03C1185.34 969.62 1314.14 854.383 1442.78 738.97C1509.22 734.558 1575.8 730.158 1644.53 723.47V614.745C1447.18 617.02 1251.94 619.158 1054.59 623.558V714.645C1127.72 719.045 1201.02 721.183 1274.15 723.458C1178.82 805.57 1083.33 885.395 987.99 967.495C890.365 847.683 792.765 725.745 695.14 605.92C759.465 599.233 823.778 594.82 888.253 590.42Z" fill="white"/>
            <path d="M2500.88 89.0952C2321.17 80.1327 2143.71 71.3202 1966.28 62.3452C1957.3 486.108 1948.49 911.995 1939.68 1335.76C2023.9 1344.58 2110.43 1353.41 2194.65 1362.37C2296.69 936.495 2398.85 512.72 2500.89 89.0952H2500.88ZM1915.19 1794.8H2221.27V1539.8C2110.43 1530.85 1999.58 1522.02 1888.58 1513.21C1897.39 1608.53 1906.38 1701.75 1915.19 1794.8Z" fill="#6B0094"/>
        </symbol>
        <symbol id="outlook" viewBox="0 0 2501 2398" >
            <path d="M2157.24 150.176H869.451C841.559 150.176 814.809 161.256 795.086 180.979C775.363 200.702 764.283 227.452 764.283 255.344V374.895L1490.12 599.613L2262.41 374.895V255.344C2262.41 227.452 2251.33 200.702 2231.6 180.979C2211.88 161.256 2185.13 150.176 2157.24 150.176Z" fill="#0364B8"/>
            <path d="M2386 1304.11C2396.98 1269.62 2405.73 1234.47 2412.22 1198.86C2412.21 1190.12 2409.9 1181.53 2405.52 1173.95C2401.14 1166.38 2394.85 1160.09 2387.28 1155.72L2386.3 1155.12L2386 1154.97L1574.17 692.497C1570.67 690.225 1567.04 688.149 1563.31 686.28C1547.78 678.572 1530.68 674.561 1513.35 674.561C1496.01 674.561 1478.91 678.572 1463.38 686.28C1459.65 688.123 1456.02 690.174 1452.52 692.422L640.688 1155.04L640.388 1155.19L639.489 1155.72C631.9 1160.08 625.593 1166.37 621.201 1173.94C616.809 1181.51 614.488 1190.11 614.47 1198.86C620.959 1234.47 629.716 1269.62 640.688 1304.11L1501.51 1933.69L2386 1304.11Z" fill="#0A2767"/>
            <path d="M1812.97 374.895H1288.63L1137.24 599.613L1288.63 824.332L1812.97 1273.77H2262.41V824.332L1812.97 374.895Z" fill="#28A8EA"/>
            <path d="M764.283 374.895H1288.63V824.332H764.283V374.895Z" fill="#0078D4"/>
            <path d="M1812.97 374.895H2262.41V824.332H1812.97V374.895Z" fill="#50D9FF"/>
            <path d="M1812.97 1273.77L1288.63 824.332H764.283V1273.77L1288.63 1723.21L2100.01 1855.64L1812.97 1273.77Z" fill="#0364B8"/>
            <path d="M1288.63 824.332H1812.97V1273.77H1288.63V824.332Z" fill="#0078D4"/>
            <path d="M764.283 1273.77H1288.63V1723.21H764.283V1273.77Z" fill="#064A8C"/>
            <path d="M1812.97 1273.77H2262.41V1723.21H1812.97V1273.77Z" fill="#0078D4"/>
            <path opacity="0.5" d="M1527.58 1889.35L644.208 1245.16L681.287 1179.99C681.287 1179.99 1486.15 1638.41 1498.44 1645.3C1503.47 1647.32 1508.85 1648.27 1514.26 1648.12C1519.67 1647.96 1525 1646.7 1529.9 1644.41L2348.85 1177.74L2386 1242.83L1527.58 1889.35Z" fill="#0A2767"/>
            <path d="M2387.28 1242.08L2386.23 1242.68L2386 1242.83L1574.17 1705.3C1558.05 1715.7 1539.52 1721.79 1520.38 1722.98C1501.23 1724.17 1482.1 1720.43 1464.81 1712.12L1747.5 2091.22L2365.78 2225.83V2226.13C2380.16 2215.72 2391.87 2202.06 2399.94 2186.25C2408.02 2170.44 2412.22 2152.94 2412.22 2135.19V1198.86C2412.22 1207.62 2409.92 1216.23 2405.54 1223.82C2401.16 1231.4 2394.86 1237.7 2387.28 1242.08Z" fill="#1490DF"/>
            <path opacity="0.05" d="M2412.22 2135.19V2079.91L1664.43 1653.84L1574.17 1705.3C1558.05 1715.7 1539.52 1721.79 1520.38 1722.98C1501.23 1724.17 1482.1 1720.43 1464.81 1712.12L1747.5 2091.22L2365.78 2225.83V2226.13C2380.16 2215.72 2391.87 2202.06 2399.94 2186.25C2408.02 2170.44 2412.22 2152.94 2412.22 2135.19Z" fill="black"/>
            <path opacity="0.1" d="M2408.48 2163.88L1588.78 1696.99L1574.17 1705.23C1558.05 1715.64 1539.53 1721.74 1520.39 1722.94C1501.24 1724.15 1482.1 1720.42 1464.81 1712.12L1747.5 2091.22L2365.78 2225.83V2226.13C2386.74 2210.94 2401.83 2188.98 2408.48 2163.96V2163.88Z" fill="black"/>
            <path d="M640.688 1243.06V1242.31H639.939L637.691 1240.81C630.531 1236.42 624.629 1230.24 620.56 1222.89C616.491 1215.54 614.393 1207.26 614.47 1198.86V2135.19C614.451 2149.95 617.344 2164.57 622.983 2178.21C628.623 2191.85 636.898 2204.25 647.336 2214.69C657.773 2225.12 670.168 2233.4 683.808 2239.04C697.449 2244.68 712.069 2247.57 726.83 2247.55H2299.86C2309.22 2247.46 2318.53 2246.2 2327.58 2243.81C2332.27 2242.99 2336.81 2241.47 2341.06 2239.31C2342.65 2239.16 2344.19 2238.64 2345.55 2237.81C2351.68 2235.31 2357.47 2232.03 2362.78 2228.08C2364.28 2227.33 2365.03 2227.33 2365.78 2225.83L640.688 1243.06Z" fill="#28A8EA"/>
            <path opacity="0.1" d="M1363.53 1848.08V624.557C1363.45 598.1 1352.91 572.748 1334.2 554.04C1315.49 535.331 1290.14 524.786 1263.68 524.707H766.53V1083.21L640.688 1154.97L640.313 1155.12L639.414 1155.64C631.828 1160.02 625.529 1166.32 621.15 1173.91C616.771 1181.5 614.467 1190.1 614.47 1198.86V1947.93H1263.68C1290.14 1947.85 1315.49 1937.3 1334.2 1918.59C1352.91 1899.88 1363.45 1874.53 1363.53 1848.08Z" fill="black"/>
            <path opacity="0.2" d="M1288.63 1922.98V699.463C1288.55 673.006 1278 647.654 1259.29 628.946C1240.59 610.238 1215.23 599.692 1188.78 599.613H766.53V1083.21L640.688 1154.97L640.313 1155.12L639.414 1155.64C631.828 1160.02 625.529 1166.32 621.15 1173.91C616.771 1181.5 614.467 1190.1 614.47 1198.86V2022.83H1188.78C1215.23 2022.75 1240.59 2012.21 1259.29 1993.5C1278 1974.79 1288.55 1949.44 1288.63 1922.98Z" fill="black"/>
            <path opacity="0.2" d="M1288.63 1773.17V699.463C1288.55 673.006 1278 647.654 1259.29 628.946C1240.59 610.238 1215.23 599.692 1188.78 599.613H766.53V1083.21L640.688 1154.97L640.313 1155.12L639.414 1155.64C631.828 1160.02 625.529 1166.32 621.15 1173.91C616.771 1181.5 614.467 1190.1 614.47 1198.86V1873.02H1188.78C1215.23 1872.94 1240.59 1862.4 1259.29 1843.69C1278 1824.98 1288.55 1799.63 1288.63 1773.17Z" fill="black"/>
            <path opacity="0.2" d="M1213.72 1773.17V699.463C1213.64 673.006 1203.1 647.654 1184.39 628.946C1165.68 610.238 1140.33 599.692 1113.87 599.613H766.53V1083.21L640.688 1154.97L640.313 1155.12L639.414 1155.64C631.828 1160.02 625.529 1166.32 621.15 1173.91C616.771 1181.5 614.467 1190.1 614.47 1198.86V1873.02H1113.87C1140.33 1872.94 1165.68 1862.4 1184.39 1843.69C1203.1 1824.98 1213.64 1799.63 1213.72 1773.17Z" fill="black"/>
            <path d="M115.07 599.613H1113.87C1140.35 599.613 1165.75 610.133 1184.48 628.859C1203.2 647.584 1213.72 672.981 1213.72 699.463V1698.26C1213.72 1724.75 1203.2 1750.14 1184.48 1768.87C1165.75 1787.59 1140.35 1798.11 1113.87 1798.11H115.07C88.5886 1798.11 63.1914 1787.59 44.4659 1768.87C25.7403 1750.14 15.2205 1724.75 15.2205 1698.26L15.2205 699.463C15.2205 672.981 25.7403 647.584 44.4659 628.859C63.1914 610.133 88.5886 599.613 115.07 599.613Z" fill="#0078D4"/>
            <path d="M304.883 1009.2C331.415 952.656 374.248 905.336 427.879 873.321C487.296 839.307 554.949 822.355 623.384 824.332C686.751 822.957 749.277 839.023 804.133 870.774C855.77 901.531 897.356 946.63 923.833 1000.59C952.678 1060.06 967.051 1125.51 965.781 1191.6C967.168 1260.63 952.365 1329.02 922.56 1391.3C895.506 1447.17 852.666 1493.89 799.339 1525.68C742.332 1558.44 677.432 1574.95 611.699 1573.39C546.941 1574.94 483 1558.69 426.83 1526.43C374.781 1495.62 332.705 1450.48 305.632 1396.39C276.59 1337.8 262.025 1273.09 263.16 1207.7C261.904 1139.23 276.168 1071.37 304.883 1009.2ZM435.969 1328.15C450.103 1363.9 474.075 1394.91 505.107 1417.59C536.73 1439.72 574.611 1451.14 613.197 1450.17C654.302 1451.77 694.814 1439.97 728.628 1416.54C759.315 1393.87 782.676 1362.7 795.818 1326.88C810.554 1286.97 817.817 1244.69 817.242 1202.16C817.699 1159.22 810.86 1116.52 797.017 1075.87C784.802 1039.3 762.275 1007.04 732.148 982.984C699.226 958.378 658.833 945.866 617.766 947.553C578.34 946.556 539.611 958.068 507.13 980.437C475.488 1003.16 450.963 1034.41 436.418 1070.55C404.243 1153.39 404.056 1245.25 435.894 1328.23L435.969 1328.15Z" fill="white"/>
            <circle cx="1264" cy="1361" r="50" fill="#D9D9D9"/>
        </symbol>
        <symbol id="gmail" viewBox="0 0 20 20" >
            <path d="M18.7412 17.3219H1.255C0.571875 17.3219 0 16.7812 0 16.0831V3.985C0.000661585 3.65247 0.133137 3.33377 0.368387 3.09875C0.603638 2.86373 0.922471 2.73158 1.255 2.73125H18.7412C19.4244 2.73125 19.9962 3.29375 19.9962 3.98625V16.0675C19.9806 16.7825 19.4244 17.3219 18.7412 17.3219Z" fill="#F2F2F2"/>
            <path opacity="0.1" d="M2.5 17.3219L9.98125 11.8469L10.0287 11.5294L2.3125 5.98625L2.29688 17.0519L2.5 17.3219Z" fill="#221F1F"/>
            <path d="M1.25494 17.3219C0.562439 17.3219 -6.10352e-05 16.7813 -6.10352e-05 16.0831V3.96875C-6.10352e-05 3.27 0.562439 3.14375 1.25494 3.14375C1.94744 3.14375 2.50994 3.2875 2.50994 3.96875V17.3213L1.25494 17.3219Z" fill="#D44C3D"/>
            <path d="M1.255 3.33375C2.14438 3.33375 2.31938 3.60375 2.31938 3.96875V17.1463H1.255C0.667503 17.1463 0.190628 16.67 0.190628 16.0819V3.96875C0.175003 3.59375 0.365628 3.33375 1.255 3.33375ZM1.255 3.15875C0.562503 3.15938 3.46488e-06 3.30188 3.46488e-06 3.96875V16.0663C-0.00235341 16.2317 0.0284983 16.396 0.0907334 16.5493C0.152969 16.7026 0.245323 16.8419 0.362333 16.9589C0.479344 17.0759 0.618633 17.1683 0.771961 17.2305C0.92529 17.2928 1.08954 17.3236 1.255 17.3213H2.51V3.96875C2.5 3.28625 1.95375 3.15875 1.255 3.15875ZM18.7413 3.33375C19.5513 3.33375 19.8056 3.4925 19.8056 3.9375V16.0988C19.8056 16.6863 19.3294 17.1631 18.7413 17.1631H17.6769V3.9375C17.6613 3.47688 17.9313 3.33375 18.7413 3.33375ZM18.7413 3.15875C18.0425 3.15875 17.4863 3.25375 17.4863 3.93688V17.3369H18.7413C19.44 17.3369 19.9963 16.7744 19.9963 16.0819V3.92125C19.9806 3.23813 19.4244 3.15875 18.7413 3.15875Z" fill="#D44C3D"/>
            <path d="M18.7413 17.3219H17.4863V3.9375C17.4863 3.23875 18.0488 3.15938 18.7413 3.15938C19.4338 3.15938 19.9963 3.25438 19.9963 3.9375V16.0988C19.9892 16.4265 19.8537 16.7383 19.619 16.9671C19.3843 17.1958 19.069 17.3233 18.7413 17.3219Z" fill="#D44C3D"/>
            <path opacity="0.08" d="M13.2775 17.1781L0 4.35625L0.69875 4.64187L9.94875 11.2963L19.8844 4V15.955C19.8837 16.1189 19.8507 16.281 19.7872 16.432C19.7237 16.5831 19.631 16.7201 19.5143 16.8352C19.3977 16.9503 19.2595 17.0413 19.1076 17.1028C18.9558 17.1643 18.7932 17.1952 18.6294 17.1938L13.2775 17.1781Z" fill="#221F1F"/>
            <path d="M9.97561 11.8625L0.540608 5.0175C-0.0218918 4.605 -0.174392 3.81125 0.238733 3.255C0.651858 2.69875 1.44498 2.57187 2.01748 2.985L9.99061 8.78187L18.0112 2.90625C18.5737 2.49375 19.3456 2.62062 19.7581 3.19187C20.1706 3.75437 20.0437 4.52625 19.4725 4.93875L9.97561 11.8625Z" fill="#D44C3D"/>
            <path d="M18.7417 2.85774C19.0754 2.85774 19.4085 3.01649 19.6154 3.30274C19.9492 3.77899 19.8529 4.44649 19.3779 4.80274L9.97542 11.6409L0.651669 4.87524C0.175419 4.52524 0.0479192 3.84211 0.375419 3.37524C0.566044 3.08961 0.900419 2.91461 1.26479 2.91461C1.50229 2.91461 1.72542 2.97836 1.89979 3.12086L9.85604 8.90211L9.96729 8.96586L10.0785 8.90211L18.091 3.03149C18.2973 2.92024 18.5035 2.85649 18.7423 2.85649L18.7417 2.85774ZM18.7417 2.66711C18.4873 2.66711 18.2167 2.73086 18.0104 2.90461L9.99042 8.78149L2.00167 2.96899C1.79542 2.81024 1.52542 2.73149 1.25542 2.73149C0.858544 2.74711 0.461669 2.92211 0.222919 3.25649C-0.173956 3.81899 -0.0145808 4.59086 0.540419 5.00336L9.97542 11.8627L19.4723 4.93774C19.7394 4.74217 19.9191 4.44949 19.9725 4.12274C20.0259 3.79599 19.9489 3.46133 19.7579 3.19086C19.5035 2.85711 19.1229 2.66586 18.7417 2.66586V2.66711Z" fill="#D44C3D"/>
        </symbol>
        <symbol id="learn" viewBox="0 0 16 16" >
            <path d="M7.9375 2.89996L7.9375 15.5" stroke="#B8BEC1" stroke-width="1.5" stroke-miterlimit="10"/>
            <path d="M11.6521 1C9.6215 1 7.93758 1.8 7.93758 2.9C7.93758 1.8 6.25367 1 4.22306 1C2.19246 1 0.508545 1.8 0.508545 2.9L0.508545 15.5C0.508545 14.35 2.19246 13.5 4.22306 13.5C6.25367 13.5 7.93758 14.35 7.93758 15.5C7.93758 14.35 9.6215 13.5 11.6521 13.5C13.6827 13.5 15.3666 14.35 15.3666 15.5L15.3666 2.9C15.3666 1.8 13.6827 1 11.6521 1Z" stroke="#B8BEC1" stroke-width="1.5" stroke-miterlimit="10" stroke-linecap="square"/>
        </symbol>
        <symbol id="leisure" viewBox="0 0 18 17" >
            <path d="M9.12728 -4.41139e-08C10.6433 0.000219939 12.1311 0.413605 13.4337 1.19653C14.7364 1.97945 15.8055 3.10286 16.5283 4.44821C17.251 5.79356 17.6006 7.31094 17.5402 8.84021C17.4797 10.3695 17.0115 11.8539 16.1848 13.1368C16.1211 13.2355 16.034 13.3166 15.9314 13.3728C15.8288 13.4289 15.7139 13.4583 15.5972 13.4583L2.65745 13.4583C2.54074 13.4583 2.42589 13.4289 2.32328 13.3728C2.22068 13.3166 2.13356 13.2355 2.06983 13.1368C1.24318 11.8539 0.774918 10.3695 0.714467 8.84023C0.654015 7.31097 1.00362 5.7936 1.72637 4.44825C2.44913 3.10291 3.51823 1.97949 4.82084 1.19656C6.12346 0.413632 7.61128 0.000235861 9.12728 -4.41139e-08V-4.41139e-08ZM3.04939 12.0417L15.2052 12.0417C15.7028 11.173 16.0108 10.207 16.1085 9.20833L14.7403 9.20833L14.7403 7.79167L16.1085 7.79167C16.033 7.03067 15.8349 6.28724 15.522 5.5907L14.3393 6.28008L13.6376 5.05325L14.8186 4.3651C14.3755 3.74547 13.8368 3.20163 13.2231 2.75435L12.5412 3.94666L11.3259 3.23832L12.0091 2.04425C11.3191 1.72837 10.5827 1.52835 9.82891 1.45208L9.82891 2.83333L8.42565 2.83333L8.42565 1.45208C7.67185 1.52832 6.93545 1.72831 6.2455 2.04416L6.92836 3.23823L5.71314 3.94657L5.0315 2.75435C4.41773 3.20163 3.87904 3.74547 3.43599 4.3651L4.61702 5.05352L3.91538 6.28035L2.73261 5.59096C2.41975 6.28741 2.22162 7.03076 2.14604 7.79167L3.51423 7.79167L3.51423 9.20833L2.14604 9.20833C2.24378 10.207 2.55177 11.173 3.04939 12.0417V12.0417Z"/>
            <path d="M7.62381 5.30219L8.70747 7.12614C9.19485 7.02553 9.70178 7.10213 10.1386 7.34241C10.5754 7.58269 10.9141 7.97116 11.0946 8.43915C11.2751 8.90714 11.2859 9.42449 11.125 9.89974C10.9642 10.375 10.6421 10.7775 10.2157 11.0361C9.78922 11.2948 9.28594 11.3928 8.7948 11.313C8.30366 11.2332 7.85629 10.9806 7.53179 10.6C7.2073 10.2193 7.02658 9.73507 7.02159 9.23288C7.0166 8.73068 7.18766 8.24288 7.50453 7.85573L6.42051 6.03106L7.62381 5.30219ZM9.12705 9.91662C9.26582 9.91662 9.40147 9.87508 9.51685 9.79725C9.63224 9.71941 9.72217 9.60879 9.77527 9.47936C9.82838 9.34993 9.84227 9.2075 9.8152 9.0701C9.78813 8.9327 9.7213 8.80648 9.62318 8.70742C9.52505 8.60836 9.40003 8.5409 9.26393 8.51357C9.12783 8.48624 8.98675 8.50026 8.85855 8.55388C8.73034 8.60749 8.62076 8.69828 8.54367 8.81476C8.46657 8.93125 8.42542 9.06819 8.42542 9.20829C8.42563 9.39609 8.49962 9.57613 8.63115 9.70892C8.76269 9.84172 8.94103 9.91641 9.12705 9.91662V9.91662Z"/>
        </symbol>
        <symbol id="work" viewBox="0 0 32 32" >
            <rect fill="none" height="24" stroke-linejoin="round" stroke-miterlimit="10" stroke-width="2" width="30" x="1" y="7"/>
            <path d="M31,7H1v6   c0,2.209,1.791,4,4,4h22c2.209,0,4-1.791,4-4V7z" fill="none" stroke-linejoin="round" stroke-miterlimit="10" stroke-width="2"/>
            <path d="M8,7V3   c0-1.105,0.895-2,2-2h12c1.105,0,2,0.895,2,2v4" fill="none" stroke-linejoin="round" stroke-miterlimit="10" stroke-width="2"/>
            <path d="M16,21L16,21   c-1.105,0-2-0.895-2-2v-4c0-1.105,0.895-2,2-2h0c1.105,0,2,0.895,2,2v4C18,20.105,17.105,21,16,21z" fill="none" stroke-linejoin="round" stroke-miterlimit="10" stroke-width="2"/>
            <line fill="none" stroke-linejoin="round" stroke-miterlimit="10" stroke-width="2" x1="18" x2="14" y1="17" y2="17"/>
        </symbol>
        <symbol id="user" viewBox="0 0 21 20" >
            <path d="M20.8925 18.7995C19.3999 16.2288 17.0096 14.3007 14.1812 13.3859C15.5362 12.5797 16.589 11.351 17.178 9.88843C17.767 8.42589 17.8595 6.81044 17.4415 5.29021C17.0234 3.76997 16.1178 2.42901 14.8638 1.47331C13.6098 0.517603 12.0767 0 10.5 0C8.92331 0 7.39022 0.517603 6.13621 1.47331C4.88219 2.42901 3.9766 3.76997 3.55852 5.29021C3.14045 6.81044 3.23301 8.42589 3.82199 9.88843C4.41097 11.351 5.4638 12.5797 6.81877 13.3859C3.99046 14.3006 1.60016 16.2287 0.107536 18.7993C0.0549275 18.8902 0.0207446 18.9906 0.00693846 19.0948C-0.00686768 19.1989 -2.65955e-05 19.3047 0.0270711 19.4062C0.0541688 19.5077 0.100992 19.6029 0.164869 19.6863C0.228745 19.7697 0.308422 19.8397 0.399352 19.8923C0.490282 19.9449 0.590684 19.9791 0.694824 19.9929C0.798965 20.0067 0.904805 19.9999 1.0063 19.9728C1.1078 19.9457 1.20296 19.8989 1.28637 19.835C1.36977 19.7711 1.43977 19.6914 1.49238 19.6005C2.40556 18.0197 3.71869 16.707 5.29985 15.7944C6.881 14.8818 8.67448 14.4014 10.5001 14.4014C12.3257 14.4014 14.1192 14.8819 15.7003 15.7945C17.2815 16.7072 18.5946 18.0199 19.5077 19.6007C19.5603 19.6916 19.6303 19.7713 19.7137 19.8352C19.7971 19.899 19.8923 19.9458 19.9938 19.9729C20.0953 20 20.2011 20.0069 20.3052 19.9931C20.4094 19.9793 20.5098 19.9451 20.6007 19.8925C20.6916 19.8399 20.7713 19.7698 20.8352 19.6865C20.899 19.6031 20.9458 19.5079 20.9729 19.4064C21 19.3049 21.0069 19.1991 20.9931 19.0949C20.9792 18.9908 20.9451 18.8904 20.8925 18.7995ZM4.90059 7.20227C4.90059 6.09482 5.22898 5.01225 5.84425 4.09144C6.45951 3.17064 7.33402 2.45296 8.35716 2.02916C9.38031 1.60536 10.5062 1.49447 11.5923 1.71052C12.6785 1.92657 13.6762 2.45986 14.4593 3.24294C15.2424 4.02602 15.7757 5.02373 15.9917 6.10989C16.2078 7.19606 16.0969 8.3219 15.6731 9.34504C15.2493 10.3682 14.5316 11.2427 13.6108 11.8579C12.69 12.4732 11.6074 12.8016 10.4999 12.8016C9.01542 12.7999 7.59219 12.2094 6.54247 11.1597C5.49276 10.11 4.90228 8.68678 4.90059 7.20227V7.20227Z"/>
        </symbol>
    </defs>
</svg>
