<svg width="18" height="17" viewBox="0 0 18 17" fill="none" xmlns="http://www.w3.org/2000/svg">
<g clip-path="url(#clip0_23_487)">
<path d="M9.12728 -4.41139e-08C10.6433 0.000219939 12.1311 0.413605 13.4337 1.19653C14.7364 1.97945 15.8055 3.10286 16.5283 4.44821C17.251 5.79356 17.6006 7.31094 17.5402 8.84021C17.4797 10.3695 17.0115 11.8539 16.1848 13.1368C16.1211 13.2355 16.034 13.3166 15.9314 13.3728C15.8288 13.4289 15.7139 13.4583 15.5972 13.4583L2.65745 13.4583C2.54074 13.4583 2.42589 13.4289 2.32328 13.3728C2.22068 13.3166 2.13356 13.2355 2.06983 13.1368C1.24318 11.8539 0.774918 10.3695 0.714466 8.84023C0.654015 7.31097 1.00361 5.7936 1.72637 4.44825C2.44913 3.10291 3.51823 1.97949 4.82084 1.19656C6.12346 0.413632 7.61128 0.000235861 9.12728 -4.41139e-08V-4.41139e-08ZM3.04939 12.0417L15.2052 12.0417C15.7028 11.173 16.0108 10.207 16.1085 9.20833L14.7403 9.20833L14.7403 7.79167L16.1085 7.79167C16.033 7.03067 15.8349 6.28724 15.522 5.5907L14.3393 6.28008L13.6376 5.05325L14.8186 4.3651C14.3755 3.74547 13.8368 3.20163 13.2231 2.75435L12.5412 3.94666L11.3259 3.23832L12.0091 2.04425C11.3191 1.72837 10.5827 1.52835 9.82891 1.45208L9.82891 2.83333L8.42565 2.83333L8.42565 1.45208C7.67185 1.52832 6.93545 1.72831 6.2455 2.04416L6.92836 3.23823L5.71314 3.94657L5.0315 2.75435C4.41773 3.20163 3.87904 3.74547 3.43599 4.3651L4.61701 5.05352L3.91538 6.28035L2.73261 5.59096C2.41975 6.28741 2.22162 7.03076 2.14604 7.79167L3.51422 7.79167L3.51422 9.20833L2.14604 9.20833C2.24378 10.207 2.55177 11.173 3.04939 12.0417Z" fill="#B8BEC1"/>
<path d="M7.62381 5.30219L8.70747 7.12614C9.19485 7.02553 9.70178 7.10213 10.1386 7.34241C10.5754 7.58269 10.9141 7.97116 11.0946 8.43915C11.2751 8.90714 11.2859 9.42449 11.125 9.89974C10.9642 10.375 10.6421 10.7775 10.2157 11.0361C9.78922 11.2948 9.28594 11.3928 8.7948 11.313C8.30366 11.2332 7.85629 10.9806 7.53179 10.6C7.2073 10.2193 7.02658 9.73507 7.02159 9.23288C7.0166 8.73068 7.18766 8.24288 7.50453 7.85573L6.42051 6.03106L7.62381 5.30219ZM9.12705 9.91662C9.26582 9.91662 9.40147 9.87508 9.51685 9.79725C9.63224 9.71941 9.72217 9.60879 9.77527 9.47936C9.82838 9.34993 9.84227 9.2075 9.8152 9.0701C9.78813 8.9327 9.7213 8.80648 9.62318 8.70742C9.52505 8.60836 9.40003 8.5409 9.26393 8.51357C9.12783 8.48624 8.98675 8.50026 8.85855 8.55387C8.73034 8.60749 8.62076 8.69828 8.54367 8.81476C8.46657 8.93125 8.42542 9.06819 8.42542 9.20829C8.42563 9.39609 8.49962 9.57613 8.63115 9.70892C8.76269 9.84172 8.94103 9.91641 9.12705 9.91662Z" fill="#B8BEC1"/>
</g>
<defs>
<clipPath id="clip0_23_487">
<rect width="16.8392" height="17" fill="white" transform="matrix(-1 -5.23943e-09 -5.14076e-09 1 17.5469 0)"/>
</clipPath>
</defs>
</svg>
