<svg xmlns="http://www.w3.org/2000/svg" width="544" height="172" fill="none"><rect width="544" height="172" rx="20" fill="url(#paint0_linear)"/><path d="M515 20c0-11.046-8.954-20-20-20H366.318C372 102.5 314.387 120.689 263.5 172H495c11.046 0 20-8.954 20-20V20z" fill="url(#paint1_linear)"/><path d="M544 20c0-11.046-8.954-20-20-20H395.318c-.722 83.179-15.431 120.689-66.318 172h195c11.046 0 20-8.954 20-20V20z" fill="url(#paint2_linear)"/><defs><linearGradient id="paint0_linear" x1="71.79" y1="139.33" x2="507.746" y2="135.243" gradientUnits="userSpaceOnUse"><stop stop-color="#397CD5"/><stop offset="1" stop-color="#01D0FE"/></linearGradient><linearGradient id="paint1_linear" x1="486.627" y1="139.33" x2="314.316" y2="138.691" gradientUnits="userSpaceOnUse"><stop stop-color="#397CD5"/><stop offset="1" stop-color="#01D0FE"/></linearGradient><linearGradient id="paint2_linear" x1="515.627" y1="139.33" x2="343.316" y2="138.691" gradientUnits="userSpaceOnUse"><stop stop-color="#28A7E8"/><stop offset="1" stop-color="#01D0FE"/></linearGradient></defs></svg>